<?xml version="1.0" encoding="utf-8"?>
<!-- Generator: Adobe Illustrator 26.5.0, SVG Export Plug-In . SVG Version: 6.00 Build 0)  -->
<svg version="1.1" id="Livello_2_00000065786167212366516410000002175016157991003066_"
	 xmlns="http://www.w3.org/2000/svg" xmlns:xlink="http://www.w3.org/1999/xlink" x="0px" y="0px" viewBox="0 0 60 90"
	 style="enable-background:new 0 0 60 90;" xml:space="preserve">
<style type="text/css">
	.st0{opacity:0;fill:#FFFFFF;}
	.st1{fill:#C42C27;}
</style>
<rect class="st0" width="60" height="90"/>
<g>
	<polygon class="st1" points="35,64.6 30,59.4 25,64.6 30,69.8 	"/>
	<polygon class="st1" points="18.7,32 23.7,37.2 28.7,32 23.7,26.7 	"/>
	<polygon class="st1" points="37.6,25.4 42.6,30.6 47.6,25.4 42.6,20.2 	"/>
	<polygon class="st1" points="25,25.4 30,30.6 35,25.4 30,20.2 	"/>
	<polygon class="st1" points="55.2,20.2 50.2,25.4 55.2,30.6 55.7,30.2 55.7,20.7 	"/>
	<polygon class="st1" points="43.9,32 48.9,37.2 53.9,32 48.9,26.7 	"/>
	<polygon class="st1" points="6.1,32 11.1,37.2 16.1,32 11.1,26.7 	"/>
	<polygon class="st1" points="16.1,58 11.1,52.8 6.1,58 11.1,63.3 	"/>
	<polygon class="st1" points="22.4,64.6 17.4,59.4 12.4,64.6 17.4,69.8 	"/>
	<polygon class="st1" points="12.4,25.4 17.4,30.6 22.4,25.4 17.4,20.2 	"/>
	<polygon class="st1" points="28.7,58 23.7,52.8 18.7,58 23.7,63.3 	"/>
	<polygon class="st1" points="9.8,64.6 4.8,59.4 4.3,59.9 4.3,69.3 4.8,69.8 	"/>
	<polygon class="st1" points="55.2,33.3 50.2,38.5 55.2,43.7 55.7,43.2 55.7,33.8 	"/>
	<polygon class="st1" points="4.3,20.7 4.3,30.2 4.8,30.6 9.8,25.4 4.8,20.2 	"/>
	<polygon class="st1" points="31.3,32 36.3,37.2 41.3,32 36.3,26.7 	"/>
	<polygon class="st1" points="22.4,38.5 17.4,33.3 12.4,38.5 17.4,43.7 	"/>
	<polygon class="st1" points="16.1,45 11.1,39.8 6.1,45 11.1,50.2 	"/>
	<polygon class="st1" points="28.7,45 23.7,39.8 18.7,45 23.7,50.2 	"/>
	<polygon class="st1" points="22.4,51.5 17.4,46.3 12.4,51.5 17.4,56.7 	"/>
	<polygon class="st1" points="9.8,38.5 4.8,33.3 4.3,33.8 4.3,43.2 4.8,43.7 	"/>
	<polygon class="st1" points="55.7,56.2 55.7,46.8 55.2,46.3 50.2,51.5 55.2,56.7 	"/>
	<polygon class="st1" points="4.8,56.7 9.8,51.5 4.8,46.3 4.3,46.8 4.3,56.2 	"/>
	<polygon class="st1" points="55.2,72.4 50.2,77.6 55.2,82.8 55.7,82.3 55.7,72.9 	"/>
	<polygon class="st1" points="47.6,51.5 42.6,46.3 37.6,51.5 42.6,56.7 	"/>
	<polygon class="st1" points="53.9,45 48.9,39.8 43.9,45 48.9,50.2 	"/>
	<polygon class="st1" points="47.6,38.5 42.6,33.3 37.6,38.5 42.6,43.7 	"/>
	<polygon class="st1" points="41.3,45 36.3,39.8 31.3,45 36.3,50.2 	"/>
	<polygon class="st1" points="35,51.5 30,46.3 25,51.5 30,56.7 	"/>
	<polygon class="st1" points="35,38.5 30,33.3 25,38.5 30,43.7 	"/>
	<polygon class="st1" points="4.8,72.4 4.3,72.9 4.3,82.3 4.8,82.8 9.8,77.6 	"/>
	<polygon class="st1" points="47.6,77.6 42.6,72.4 37.6,77.6 42.6,82.8 	"/>
	<polygon class="st1" points="53.9,71.1 48.9,65.9 43.9,71.1 48.9,76.3 	"/>
	<polygon class="st1" points="36.3,11.1 41.3,5.9 40.3,4.8 32.3,4.8 31.3,5.9 	"/>
	<polygon class="st1" points="48.9,11.1 53.9,5.9 52.9,4.8 44.9,4.8 43.9,5.9 	"/>
	<polygon class="st1" points="28.7,71.1 23.7,65.9 18.7,71.1 23.7,76.3 	"/>
	<polygon class="st1" points="35,77.6 30,72.4 25,77.6 30,82.8 	"/>
	<polygon class="st1" points="41.3,71.1 36.3,65.9 31.3,71.1 36.3,76.3 	"/>
	<polygon class="st1" points="11.1,11.1 16.1,5.9 15.1,4.8 7.1,4.8 6.1,5.9 	"/>
	<polygon class="st1" points="23.7,11.1 28.7,5.9 27.7,4.8 19.7,4.8 18.7,5.9 	"/>
	<polygon class="st1" points="36.3,78.9 31.3,84.1 32.3,85.2 40.3,85.2 41.3,84.1 	"/>
	<polygon class="st1" points="48.9,78.9 43.9,84.1 44.9,85.2 52.9,85.2 53.9,84.1 	"/>
	<polygon class="st1" points="23.7,78.9 18.7,84.1 19.7,85.2 27.7,85.2 28.7,84.1 	"/>
	<polygon class="st1" points="11.1,78.9 6.1,84.1 7.1,85.2 15.1,85.2 16.1,84.1 	"/>
	<polygon class="st1" points="22.4,77.6 17.4,72.4 12.4,77.6 17.4,82.8 	"/>
	<polygon class="st1" points="18.7,18.9 23.7,24.1 28.7,18.9 23.7,13.7 	"/>
	<polygon class="st1" points="55.2,17.6 55.7,17.1 55.7,7.7 55.2,7.2 50.2,12.4 	"/>
	<polygon class="st1" points="37.6,12.4 42.6,17.6 47.6,12.4 42.6,7.2 	"/>
	<polygon class="st1" points="55.7,69.3 55.7,59.9 55.2,59.4 50.2,64.6 55.2,69.8 	"/>
	<polygon class="st1" points="43.9,18.9 48.9,24.1 53.9,18.9 48.9,13.7 	"/>
	<polygon class="st1" points="53.9,58 48.9,52.8 43.9,58 48.9,63.3 	"/>
	<polygon class="st1" points="47.6,64.6 42.6,59.4 37.6,64.6 42.6,69.8 	"/>
	<polygon class="st1" points="16.1,71.1 11.1,65.9 6.1,71.1 11.1,76.3 	"/>
	<polygon class="st1" points="6.1,18.9 11.1,24.1 16.1,18.9 11.1,13.7 	"/>
	<polygon class="st1" points="12.4,12.4 17.4,17.6 22.4,12.4 17.4,7.2 	"/>
	<polygon class="st1" points="31.3,18.9 36.3,24.1 41.3,18.9 36.3,13.7 	"/>
	<polygon class="st1" points="4.3,7.7 4.3,17.1 4.8,17.6 9.8,12.4 4.8,7.2 	"/>
	<polygon class="st1" points="25,12.4 30,17.6 35,12.4 30,7.2 	"/>
	<polygon class="st1" points="41.3,58 36.3,52.8 31.3,58 36.3,63.3 	"/>
</g>
</svg>
