<?xml version="1.0" encoding="UTF-8"?><svg id="Livello_2" xmlns="http://www.w3.org/2000/svg" viewBox="0 0 60 90"><defs><style>.cls-1{fill:rgba(255,255,255,0);}.cls-2{fill:#c42c27;}.cls-3{fill:none;stroke:#c42c27;stroke-miterlimit:10;stroke-width:2px;}</style></defs><g id="Livello_2-2"><g><rect class="cls-1" width="60" height="90"/><g><polygon class="cls-2" points="15.01 28.22 21.64 35.12 28.28 28.22 21.64 21.19 15.01 28.22"/><polygon class="cls-2" points="23.37 19.46 30 26.36 36.63 19.46 30 12.57 23.37 19.46"/><polygon class="cls-2" points="31.72 28.22 38.36 35.12 44.99 28.22 38.36 21.19 31.72 28.22"/><polygon class="cls-2" points="36.63 36.84 30 29.95 23.37 36.84 30 43.74 36.63 36.84"/></g><polygon class="cls-2" points="31.72 45.07 38.36 51.96 44.99 45.07 38.36 38.04 31.72 45.07"/><polygon class="cls-2" points="15.01 45.07 21.64 51.96 28.28 45.07 21.64 38.04 15.01 45.07"/><g><polygon class="cls-2" points="36.63 70.54 30 63.64 23.37 70.54 30 77.43 36.63 70.54"/><polygon class="cls-2" points="28.28 61.78 21.64 54.88 15.01 61.78 21.64 68.81 28.28 61.78"/><polygon class="cls-2" points="36.63 53.16 30 46.26 23.37 53.16 30 60.05 36.63 53.16"/><polygon class="cls-2" points="44.99 61.78 38.36 54.88 31.72 61.78 38.36 68.81 44.99 61.78"/></g><rect class="cls-3" x="6.01" y="5.77" width="47.98" height="78.46" rx="5.81" ry="5.81"/></g></g></svg>