<?xml version="1.0" encoding="UTF-8"?><svg id="Livello_2" xmlns="http://www.w3.org/2000/svg" viewBox="0 0 49.17 59.64"><defs><style>.cls-1{fill:none;}.cls-2{fill:#c42c27;}</style></defs><g id="Livello_2-2"><g><rect class="cls-1" width="49.17" height="59.64"/><path class="cls-2" d="M16.38,13.4c3.63,0,6.74,2.14,8.21,5.21,1.46-3.07,4.58-5.21,8.21-5.21h0c5.04,0,9.12,4.08,9.12,9.12,0,10.95-17.34,23.72-17.34,23.72,0,0-17.34-12.77-17.34-23.73,0-5.04,4.09-9.12,9.13-9.12m0-4h0c-7.24,0-13.12,5.89-13.13,13.12,0,12.61,17.02,25.52,18.96,26.95,.71,.52,1.54,.78,2.37,.78s1.67-.26,2.37-.78c1.94-1.43,18.96-14.34,18.96-26.94,0-7.24-5.89-13.12-13.12-13.12-3.03,0-5.92,1.07-8.22,2.92-2.29-1.85-5.18-2.93-8.21-2.93h0Z"/></g></g></svg>