<?xml version="1.0" encoding="UTF-8"?><svg id="Livello_2" xmlns="http://www.w3.org/2000/svg" viewBox="0 0 49.17 59.64"><defs><style>.cls-1{fill:none;}.cls-2{fill:#191818;}</style></defs><g id="Livello_2-2"><g><rect class="cls-1" width="49.17" height="59.64"/><path class="cls-2" d="M24.59,11.8c4.7,0,8.51,3.81,8.51,8.51,0,1.96-.67,3.76-1.79,5.2,.58-.12,1.17-.19,1.79-.19,4.7,0,8.51,3.81,8.51,8.51s-3.81,8.51-8.51,8.51c-2.62,0-4.96-1.18-6.52-3.04l2.21,5.52,4.31,3.02H16.08l4.31-3.02,2.21-5.52c-1.56,1.86-3.9,3.04-6.52,3.04-4.7,0-8.51-3.81-8.51-8.51s3.81-8.51,8.51-8.51c.61,0,1.21,.07,1.79,.19-1.12-1.44-1.79-3.24-1.79-5.2,0-4.7,3.81-8.51,8.51-8.51m0-4c-6.9,0-12.51,5.61-12.51,12.51,0,.55,.04,1.1,.11,1.63-5,1.64-8.61,6.35-8.61,11.89s3.82,10.51,9.04,12.02c-.54,.95-.69,2.1-.34,3.19,.53,1.66,2.07,2.8,3.81,2.8h17.02c1.75,0,3.29-1.13,3.81-2.8,.34-1.09,.2-2.25-.34-3.19,5.21-1.51,9.04-6.33,9.04-12.02s-3.62-10.25-8.61-11.89c.07-.54,.11-1.08,.11-1.63,0-6.9-5.61-12.51-12.51-12.51h0Z"/></g></g></svg>