<?xml version="1.0" encoding="UTF-8"?><svg id="Livello_2" xmlns="http://www.w3.org/2000/svg" viewBox="0 0 34.04 36.04"><defs><style>.cls-1{fill:#191818;}</style></defs><g id="Livello_2-2"><path class="cls-1" d="M25.53,13.52c-.61,0-1.21,.07-1.79,.19,1.12-1.44,1.79-3.24,1.79-5.2C25.53,3.81,21.72,0,17.02,0S8.51,3.81,8.51,8.51c0,1.96,.67,3.76,1.79,5.2-.58-.12-1.17-.19-1.79-.19C3.81,13.52,0,17.33,0,22.03s3.81,8.51,8.51,8.51c2.62,0,4.96-1.18,6.52-3.04l-2.21,5.52-4.31,3.02H25.53l-4.31-3.02-2.21-5.52c1.56,1.86,3.9,3.04,6.52,3.04,4.7,0,8.51-3.81,8.51-8.51s-3.81-8.51-8.51-8.51Z"/></g></svg>