<?xml version="1.0" encoding="UTF-8"?><svg id="Livello_2" xmlns="http://www.w3.org/2000/svg" xmlns:xlink="http://www.w3.org/1999/xlink" viewBox="0 0 49.46 59.72"><defs><style>.cls-1{fill:none;}.cls-2{clip-path:url(#clippath);}.cls-3{fill:#f1c256;}.cls-4{fill:#c42c27;}.cls-5{fill:#1e1c1c;}.cls-6{fill:#4a6c76;}</style><clipPath id="clippath"><rect class="cls-1" width="49.46" height="59.72"/></clipPath></defs><g id="Livello_2-2"><g class="cls-2"><g><path class="cls-4" d="M8.42,75.53c13.99-4.03,19.08-32.79,34.9-32.51l-4.93,5.72c-2.8,.06-5.11,2.19-5.43,4.93-2.44,.56-4.28,2.73-4.33,5.35,0,.08,0,.15,0,.23-2.33,.64-4.06,2.75-4.11,5.3,0,.21,0,.41,.03,.61-2.09,.69-3.62,2.59-3.79,4.88-2.62,.43-4.64,2.68-4.69,5.43,0,.06,0,.13,0,.19l-7.66-.14Z"/><path class="cls-4" d="M41.54,42.99c-13.99,4.03-19.08,32.79-34.9,32.51l4.93-5.72c2.8-.06,5.11-2.19,5.43-4.93,2.44-.56,4.28-2.73,4.33-5.36,0-.08,0-.15,0-.23,2.33-.64,4.06-2.75,4.1-5.29,0-.21,0-.41-.03-.62,2.09-.68,3.63-2.58,3.79-4.88,2.62-.43,4.64-2.68,4.69-5.43,0-.06,0-.13,0-.19l7.66,.13Z"/><g><g><path class="cls-3" d="M38.33,51.75l1.09-1.26-1.23-1.53,.19-.22,4.93-5.72,4.22,6.1-1.18,1.37,1.13,1.64c1.29,3.89,5.81,15.45-10,22.98,8.49-5.98,6.54-15.01,5.57-17.04l-4.91-6.11,.19-.22Z"/><path class="cls-4" d="M41.16,52.02c.02-1.11,.83-1.99,1.81-1.97,.98,.01,1.76,.93,1.74,2.03-.02,1.11-.83,1.99-1.81,1.98-.98-.02-1.75-.93-1.74-2.04Z"/><path class="cls-3" d="M18.65,75.71s.09-.02,.15-.02c9.34-1.71,17.53-20.35,19.35-23.73l4.91,6.11c-1.44,5.35-6.52,12.89-12.43,17.24-2.91,2.14-6.03,3.52-9.01,3.46h0s0,0,0,0c.02-1.67-1.29-3.02-2.96-3.05Z"/><path class="cls-6" d="M30.63,75.31c5.91-4.34,10.99-11.88,12.43-17.24,.97,2.02,2.92,11.06-5.57,17.04,0,0,0,.01,0,.01-1.78,.84-3.81,1.64-6.14,2.37l-.7-2.18Z"/><path class="cls-6" d="M38.33,51.75c-1.16,.08-2.12,.94-2.36,2.06,.36,.12,.69,.26,1.01,.45-.39,.77-.85,1.69-1.37,2.68-.39-.25-.86-.4-1.35-.41-.29,0-.58,.04-.85,.13-1.02,.33-1.77,1.28-1.79,2.42,0,.06,0,.13,0,.19,.79,.22,1.51,.6,2.11,1.11-.5,.87-1.02,1.77-1.58,2.67-.47-.58-1.19-.97-2-.99-.23,0-.44,.02-.65,.08-1.12,.26-1.96,1.26-1.98,2.46,0,.13,0,.26,.02,.39,.95,.22,1.8,.66,2.5,1.28-.59,.83-1.19,1.65-1.82,2.43-.46-.5-1.12-.81-1.85-.82-.26,0-.51,.03-.75,.1-1.05,.3-1.84,1.25-1.88,2.41,.72,.28,1.35,.71,1.87,1.23-.74,.74-1.52,1.4-2.3,1.98-.43-.37-.99-.59-1.61-.6-.13,0-.25,0-.37,.02-1.26,.16-2.24,1.23-2.26,2.52v.1s-.44,.08-.44,.08l-2.57-.04c0-.06,0-.13,0-.19,.05-2.75,2.07-5,4.69-5.43,.17-2.29,1.7-4.19,3.79-4.88-.03-.2-.03-.4-.03-.61,.04-2.55,1.78-4.66,4.11-5.3,0-.08,0-.15,0-.23,.04-2.63,1.89-4.79,4.33-5.35,.32-2.74,2.62-4.87,5.43-4.93l1.04,1.74-1.09,1.26Z"/></g><g><path class="cls-5" d="M23.85,79.07c-.77,.15-1.51,.22-2.24,.21-.28,0-.5-.23-.49-.51,0-.28,.24-.5,.51-.49,2.65,.05,5.66-1.12,8.7-3.37,6.22-4.57,10.95-12.15,12.24-16.96,.05-.2,.23-.35,.44-.37,.21-.02,.41,.1,.5,.28,1.03,2.15,3.07,11.45-5.71,17.65-.09,.08-.21,.12-.33,.12-.28,0-.5-.23-.5-.51,0-.14,.06-.27,.15-.36,.02-.02,.04-.04,.07-.06,6.94-4.88,6.69-11.78,5.87-15.02-2,5.59-6.99,12.24-12.15,16.04-2.41,1.78-4.82,2.92-7.08,3.36Z"/><path class="cls-5" d="M43.15,58.57s-.06,0-.09,.01c-.16,0-.3-.07-.4-.19l-4.91-6.11c-.15-.19-.15-.46,.01-.64l2.44-2.83s.04-.04,.06-.06l2.62-3.04c.1-.12,.25-.18,.41-.17,.15,0,.3,.09,.39,.21l4.22,6.09c.12,.18,.12,.41,0,.58l-4.43,5.94c-.08,.1-.19,.17-.31,.19Zm-4.35-6.59l4.24,5.28,3.83-5.14-3.64-5.26-2.25,2.61s-.04,.04-.06,.06l-2.11,2.45Z"/><path class="cls-5" d="M46.46,50.99c-.15,.03-.3,0-.42-.11-.21-.18-.23-.5-.05-.71l.93-1.08-3.63-5.25-4.43,5.13,.97,1.2c.17,.21,.14,.53-.07,.7-.22,.17-.53,.14-.71-.08l-1.23-1.52c-.15-.19-.15-.46,.01-.64l5.12-5.93c.1-.12,.25-.18,.41-.17,.15,0,.3,.09,.38,.21l.21,.29,4.01,5.8c.13,.19,.12,.44-.03,.61l-1.18,1.37c-.08,.09-.18,.14-.29,.17Z"/><path class="cls-5" d="M31.43,77.99c-.24,.05-.49-.1-.57-.34-.08-.27,.06-.55,.33-.63,2.19-.68,4.22-1.47,6.03-2.32,.02-.01,.04-.02,.06-.03,14.88-7.09,11.24-17.89,9.87-21.96l-.14-.41c-.09-.26,.06-.55,.32-.63,.25-.08,.54,.05,.63,.32l.14,.41c1.45,4.29,5.28,15.68-10.35,23.16-.02,.01-.04,.02-.05,.03h0c-1.87,.88-3.96,1.69-6.21,2.4-.02,0-.04,.01-.06,.02Z"/><path class="cls-5" d="M19,76.17l-.13,.02c-.27,.05-.59-.11-.65-.38-.06-.27,.05-.53,.32-.59,.09-.02,.17-.03,.25-.03,0,0,.07-.02,.14-.04,1.33-.29,2.7-.95,4.1-1.97,.78-.58,1.54-1.22,2.24-1.93,.81-.78,1.62-1.69,2.57-2.86,.6-.75,1.21-1.56,1.8-2.4,.79-1.12,1.46-2.15,2.06-3.13,.01-.03,.02-.05,.03-.07,.55-.9,1.08-1.79,1.57-2.65,.69-1.22,1.32-2.38,1.86-3.42,.36-.69,.69-1.34,.99-1.93l.38-.76c.5-1.02,.9-1.81,1.16-2.3,.13-.24,.43-.34,.68-.21,.25,.13,.34,.43,.21,.68-.26,.48-.65,1.27-1.15,2.28l-.39,.76c-.3,.59-.63,1.24-.99,1.93-.55,1.06-1.18,2.22-1.87,3.45-.49,.86-1.01,1.75-1.56,2.64,0,.02-.02,.05-.03,.06-.62,1.02-1.32,2.08-2.13,3.24-.6,.86-1.22,1.68-1.84,2.45-.98,1.21-1.82,2.15-2.65,2.95-.74,.73-1.53,1.41-2.36,2.02-1.51,1.1-3.01,1.82-4.43,2.13-.05,.02-.12,.03-.2,.05Z"/><path class="cls-5" d="M43.32,54.52c-.14,.03-.29,.04-.43,.04-.62-.01-1.2-.29-1.62-.79-.41-.48-.62-1.1-.61-1.77,.02-1.36,1.07-2.49,2.32-2.47,.62,.01,1.19,.29,1.62,.79,.41,.48,.63,1.1,.61,1.76-.02,1.2-.81,2.23-1.88,2.43Zm-.59-3.96c-.61,.12-1.06,.74-1.07,1.46,0,.41,.12,.8,.37,1.09,.23,.28,.54,.43,.87,.44,.69,.01,1.28-.66,1.3-1.48,0-.41-.13-.8-.37-1.09-.23-.27-.54-.43-.87-.43-.07,0-.15,0-.22,.02Z"/><path class="cls-5" d="M37.95,61.04c-.13,.03-.26,0-.38-.08-.15-.1-.23-.27-.22-.44l.22-4.56c.01-.28,.25-.49,.53-.48,.27,.01,.49,.25,.47,.53l-.18,3.73,2.42-1.15c.25-.12,.55,0,.67,.24,.12,.25,.01,.55-.24,.67l-3.18,1.5s-.08,.03-.12,.04Z"/><path class="cls-5" d="M46.84,60.57c-.16,.03-.33-.02-.45-.13l-1.91-1.85c-.2-.19-.2-.51-.01-.71,.19-.2,.51-.21,.71-.01l1.11,1.07,.11-2.97c0-.27,.24-.49,.52-.48,.28,.01,.49,.24,.48,.52l-.15,4.09c-.01,.2-.13,.37-.32,.45-.03,.01-.06,.02-.09,.03Z"/><path class="cls-5" d="M24.65,65.66s-.02,0-.03,0c-.27,.04-.53-.15-.56-.43-.03-.23-.04-.45-.03-.69,.04-2.69,1.89-5.06,4.47-5.77,.56-.16,1.14-.23,1.73-.22,.56,0,1.08,.09,1.56,.24,.83,.22,1.61,.63,2.29,1.21,.21,.18,.24,.49,.06,.71-.18,.21-.5,.24-.71,.06-.56-.48-1.2-.82-1.92-1.01-.4-.12-.83-.19-1.29-.2-.5-.01-.98,.05-1.45,.19-2.16,.59-3.7,2.57-3.74,4.82,0,.18,0,.36,.03,.54,.03,.26-.14,.51-.4,.56Z"/><path class="cls-5" d="M33.05,54.16s-.1,.01-.15,0c-.28-.03-.47-.28-.44-.56,.35-3,2.89-5.31,5.92-5.38,.28,0,.51,.21,.51,.49,0,.28-.21,.5-.49,.51-2.52,.06-4.65,1.98-4.94,4.49-.03,.22-.19,.39-.4,.43Z"/><path class="cls-5" d="M40.69,49.63s-.07,.01-.1,0c-.28,0-.5-.23-.5-.5,0-.28,.23-.5,.5-.5h0c.28,0,.5,.23,.5,.51,0,.24-.17,.44-.4,.49Z"/><path class="cls-5" d="M36.39,56.14s-.06,.01-.1,.01c-.28,0-.5-.23-.5-.51s.23-.51,.5-.5c.28,0,.5,.22,.5,.5h0c0,.25-.17,.45-.41,.5Z"/><path class="cls-5" d="M36.07,54.3c-.06,.01-.13,.01-.2,0-.27-.06-.45-.32-.39-.6,.29-1.35,1.45-2.36,2.81-2.45,.28-.02,.52,.19,.53,.47,.02,.28-.18,.51-.47,.54-.92,.06-1.7,.75-1.9,1.66-.05,.2-.2,.35-.4,.39Z"/><path class="cls-5" d="M28.73,59.75h-.04c-.27,.04-.52-.16-.56-.43-.01-.09-.01-.17,0-.26,.05-2.85,1.99-5.25,4.72-5.87,.5-.11,.99-.17,1.49-.16,.61,0,1.21,.11,1.8,.3,.4,.13,.77,.29,1.11,.49,.24,.14,.32,.45,.18,.69-.14,.24-.45,.32-.69,.18-.28-.16-.58-.3-.92-.4-.49-.16-1-.24-1.5-.26-.42,0-.83,.04-1.25,.13-2.28,.53-3.9,2.53-3.94,4.87,0,.08,0,.12,0,.16,.03,.26-.14,.5-.4,.55Z"/><path class="cls-5" d="M31.73,59.7s-.02,0-.03,0c-.27,.04-.52-.1-.56-.37-.01-.08-.01-.16,0-.24,.02-1.34,.88-2.5,2.13-2.91,.32-.11,.67-.16,1.01-.15,.58,.01,1.13,.18,1.61,.48,.23,.15,.3,.46,.15,.69-.14,.23-.46,.3-.69,.15-.32-.2-.7-.32-1.08-.32-.24,0-.47,.03-.68,.1-.85,.28-1.43,1.06-1.44,1.95,.03,.27-.15,.56-.41,.62Z"/></g></g><g><g><path class="cls-3" d="M34.83,12.77c0,.42-.14,.81-.37,1.13-.37,.53-.99,.85-1.67,.84l-22.07-.39c-.68-.01-1.29-.37-1.64-.9-.21-.33-.34-.72-.33-1.14,0-.55,.24-1.05,.61-1.41,.37-.36,.87-.58,1.43-.57l22.07,.39c1.1,.02,1.99,.94,1.97,2.04Z"/><path class="cls-6" d="M11.79,10.36c-1-.01-1.98-1.83-1.94-4.05,.04-2.22,1.86-3.98,4.08-3.94,.45,0,.88,.08,1.28,.23-.8,.8-1.32,1.97-1.34,3.28-.03,1.7-.22,3.17,.99,3.96,.58,.37,1.23,.59,1.95,.61l10.03,.18c.71,.01,1.38-.19,1.97-.54,1.24-.75,1.09-2.23,1.12-3.92,.02-1.3-.45-2.5-1.23-3.32,.41-.14,.83-.2,1.29-.19,2.22,.04,3.98,1.86,3.94,4.08-.04,2.22-1.07,4-2.08,3.98l-20.07-.35Z"/><path class="cls-3" d="M29.93,6.16c.02-1.3-.45-2.5-1.23-3.32-.71-.78-1.65-1.24-2.71-1.26-.47,0-.92,.07-1.35,.25h0c-.69-.8-1.61-1.3-2.64-1.32-1.02-.02-1.97,.45-2.68,1.23h0c-.42-.19-.87-.29-1.34-.3-1.05-.02-2.01,.42-2.75,1.17-.8,.8-1.32,1.97-1.34,3.28-.03,1.7-.22,3.17,.99,3.96,.58,.37,1.23,.59,1.95,.61l10.03,.18c.71,.01,1.38-.19,1.97-.54,1.24-.75,1.09-2.23,1.12-3.92Zm-8.05,1.36c-.83-.01-1.49-.93-1.47-2.03,.02-1.1,.71-2,1.54-1.98,.83,.01,1.49,.93,1.47,2.03-.02,1.1-.71,2-1.54,1.98Z"/><path class="cls-4" d="M24.64,1.82h0c-.69-.8-1.61-1.3-2.64-1.32-1.02-.02-1.97,.45-2.68,1.23h0c-.84,.91-1.39,2.23-1.41,3.72-.02,1.34,.38,2.56,1.04,3.47,.72,.98,1.74,1.6,2.89,1.62,1.14,.02,2.19-.56,2.93-1.51,.7-.89,1.14-2.1,1.16-3.44,.02-1.48-.47-2.83-1.28-3.77Zm-2.77,5.7c-.83-.01-1.49-.93-1.47-2.03,.02-1.1,.71-2,1.54-1.98,.83,.01,1.49,.93,1.47,2.03-.02,1.1-.71,2-1.54,1.98Z"/><path class="cls-3" d="M11.62,66.78l-1.1,1.27,1.23,1.53-.18,.22-4.93,5.72-4.22-6.09,1.18-1.38-1.13-1.63c-1.29-3.89-5.8-15.45,10-22.98-8.48,5.97-6.53,15.01-5.56,17.04l4.91,6.1-.18,.22Z"/><path class="cls-3" d="M31.3,42.82s-.09,.02-.14,.02c-9.35,1.71-17.53,20.36-19.35,23.73l-4.91-6.1c1.44-5.35,6.52-12.89,12.42-17.24,2.91-2.15,6.03-3.52,9.01-3.47h.01s0,0,0,0c-.02,1.67,1.29,3.02,2.96,3.05Z"/><path class="cls-6" d="M19.32,43.22c-5.91,4.34-10.99,11.88-12.42,17.24-.97-2.03-2.92-11.06,5.56-17.04,0,0,.01,0,.01,0,1.78-.84,3.81-1.64,6.14-2.37l.7,2.18Z"/><path class="cls-6" d="M11.62,66.78c1.16-.08,2.11-.94,2.36-2.05-.36-.12-.7-.26-1.02-.45,.39-.78,.85-1.69,1.37-2.69,.39,.25,.86,.4,1.35,.41,.29,0,.58-.04,.84-.13,1.02-.33,1.77-1.28,1.79-2.42,0-.06,0-.13,0-.19-.79-.21-1.51-.6-2.11-1.11,.5-.88,1.02-1.77,1.58-2.67,.48,.58,1.19,.97,2,.99,.23,0,.44-.02,.65-.08,1.12-.26,1.96-1.26,1.98-2.46,0-.13,0-.26-.02-.39-.95-.22-1.81-.66-2.5-1.28,.59-.83,1.19-1.65,1.82-2.43,.46,.5,1.12,.81,1.85,.82,.26,0,.51-.03,.75-.1,1.05-.3,1.84-1.25,1.88-2.41-.72-.28-1.35-.71-1.88-1.23,.75-.74,1.52-1.4,2.31-1.98,.43,.37,.99,.59,1.6,.6,.13,0,.25,0,.37-.02,1.26-.16,2.24-1.22,2.26-2.52v-.1s.43-.08,.43-.08l2.57,.04c0,.06,0,.13,0,.19-.05,2.75-2.07,5-4.69,5.43-.16,2.3-1.7,4.2-3.79,4.88,.03,.2,.03,.4,.03,.62-.04,2.55-1.77,4.65-4.1,5.29,0,.08,0,.15,0,.23-.05,2.63-1.89,4.79-4.33,5.36-.32,2.74-2.62,4.87-5.43,4.93l-1.05-1.74,1.1-1.27Z"/></g><g><path class="cls-5" d="M33.3,15.2c-.17,.03-.35,.05-.52,.05l-22.07-.39c-.83-.02-1.6-.44-2.05-1.13-.28-.42-.42-.92-.41-1.42,.01-.68,.29-1.3,.77-1.76,.46-.45,1.11-.71,1.78-.7l22.07,.39c.67,.01,1.3,.29,1.76,.77,.46,.48,.71,1.12,.7,1.79,0,.5-.17,.99-.46,1.41-.37,.53-.93,.88-1.56,1.01ZM10.46,10.87c-.29,.06-.54,.19-.75,.4-.3,.28-.46,.65-.47,1.06,0,.31,.08,.6,.25,.86,.27,.41,.73,.67,1.23,.67l22.07,.39c.5,.01,.97-.23,1.26-.63,.18-.25,.27-.54,.28-.84,0-.4-.14-.78-.42-1.07-.28-.29-.65-.46-1.05-.46l-22.07-.39c-.11,0-.21,0-.32,.03Z"/><path class="cls-5" d="M22.59,10.97c-.26,.05-.52,.08-.78,.07-1.25-.02-2.45-.69-3.28-1.82-.76-1.05-1.16-2.38-1.14-3.78,.03-1.54,.59-3.02,1.54-4.05,.02-.02,.04-.04,.07-.06,.83-.87,1.9-1.35,3-1.33,1.11,.02,2.16,.53,2.96,1.43,.02,.02,.04,.04,.06,.06,.92,1.06,1.43,2.56,1.4,4.1-.03,1.39-.48,2.72-1.27,3.73-.68,.87-1.59,1.45-2.56,1.64Zm-2.97-8.84c-.76,.85-1.2,2.06-1.22,3.33-.02,1.17,.32,2.3,.94,3.17,.66,.89,1.54,1.39,2.49,1.41,.94,.02,1.85-.46,2.53-1.32,.66-.84,1.04-1.96,1.06-3.13,.02-1.27-.38-2.5-1.11-3.38-.02-.02-.04-.04-.06-.06-.62-.72-1.42-1.13-2.26-1.15-.84-.01-1.66,.37-2.3,1.07-.02,.02-.04,.04-.06,.06Z"/><path class="cls-5" d="M27.68,11.05c-.28,.05-.56,.08-.85,.07-.28,0-.5-.24-.49-.51,0-.28,.24-.5,.51-.49,.59,.01,1.16-.15,1.7-.47,.82-.5,.86-1.39,.87-2.94v-.57c.03-1.13-.37-2.21-1.08-2.97-.51-.56-1.15-.92-1.83-1.05-.17-.03-.34-.05-.53-.05-.41,0-.79,.06-1.15,.21-.06,.03-.12,.04-.19,.04-.28,0-.5-.23-.5-.5,0-.23,.15-.43,.37-.48,.47-.18,.97-.28,1.5-.26,.24,0,.46,.03,.69,.07,.91,.17,1.73,.64,2.39,1.36,.88,.94,1.38,2.28,1.36,3.67v.55c-.01,1.53-.02,2.98-1.36,3.79-.45,.27-.91,.44-1.38,.54Z"/><path class="cls-5" d="M32.13,11.19c-.1,.02-.19,.03-.29,.02-.28,0-.5-.23-.49-.51,0-.28,.24-.5,.51-.49,.18,0,.4-.14,.63-.4,.55-.65,.92-1.86,.94-3.08,.01-.85-.28-1.67-.84-2.33-.65-.77-1.6-1.22-2.61-1.24-.4,0-.78,.05-1.12,.16-.26,.09-.55-.05-.64-.31-.09-.26,.05-.55,.32-.63,.45-.15,.94-.22,1.45-.21,1.29,.02,2.52,.6,3.36,1.59,.72,.85,1.1,1.91,1.08,3-.02,1.46-.48,2.89-1.18,3.72-.36,.41-.73,.65-1.12,.72Z"/><path class="cls-5" d="M16.9,10.94s-.07,.01-.11,.01c-.78-.01-1.53-.25-2.21-.69-1.31-.86-1.27-2.31-1.23-3.85v-.55c.04-1.39,.58-2.71,1.5-3.62,.55-.57,1.23-.97,1.97-1.17,.38-.1,.76-.15,1.15-.14,.54,.01,1.05,.12,1.52,.33,.19,.07,.32,.26,.32,.47,0,.28-.23,.5-.5,.5h0c-.07,0-.14-.01-.21-.04-.35-.16-.74-.25-1.14-.25-.29,0-.58,.03-.87,.11-.56,.15-1.08,.47-1.52,.91-.74,.74-1.18,1.81-1.2,2.94v.56c-.06,1.55-.04,2.45,.76,2.98,.52,.34,1.09,.51,1.68,.52,.28,0,.5,.23,.49,.51,0,.24-.18,.44-.41,.48Z"/><path class="cls-5" d="M11.88,10.85s-.07,0-.1,0c-1.36-.03-2.47-2.11-2.43-4.56,.03-1.9,1.26-3.58,3.06-4.18,.45-.17,.98-.26,1.54-.25,.51,0,1,.1,1.45,.26,.26,.1,.39,.39,.29,.65-.1,.26-.39,.39-.64,.3-.34-.13-.72-.2-1.12-.2-.43,0-.83,.06-1.18,.2-1.41,.48-2.37,1.78-2.39,3.25-.04,2.04,.84,3.53,1.44,3.54,.28,0,.5,.24,.49,.51,0,.24-.18,.44-.4,.48Z"/><path class="cls-5" d="M22.21,8c-.11,.02-.23,.03-.35,.03-.46,0-.9-.21-1.24-.57-.47-.48-.73-1.2-.71-1.97,.02-1.37,.96-2.49,2.05-2.47,.56,.01,1.08,.31,1.45,.81,.34,.47,.52,1.08,.51,1.73-.02,1.22-.74,2.25-1.71,2.44Zm-.41-3.97c-.49,.1-.88,.74-.9,1.47,0,.5,.15,.97,.43,1.26,.11,.12,.3,.26,.54,.26,.56,.01,1.01-.69,1.03-1.48,0-.42-.11-.83-.32-1.12-.11-.15-.33-.39-.65-.4-.05,0-.09,0-.14,.01Z"/><path class="cls-5" d="M22.21,8c-.11,.02-.23,.03-.35,.03-.55,0-1.08-.31-1.45-.82-.34-.47-.52-1.09-.51-1.73,.02-1.37,.96-2.49,2.05-2.47,.55,.01,1.08,.31,1.45,.82,.34,.47,.52,1.08,.51,1.73-.02,1.23-.74,2.25-1.71,2.44Zm-.41-3.97c-.49,.09-.88,.74-.9,1.47,0,.42,.11,.83,.32,1.12,.1,.15,.33,.39,.65,.4,.56,.01,1.02-.69,1.03-1.48,0-.42-.11-.83-.32-1.12-.11-.15-.33-.39-.65-.4-.05,0-.09,0-.14,.01Z"/><path class="cls-5" d="M12.85,12.88s-.07,0-.11,0l-2.01-.03c-.28,0-.5-.23-.49-.51,0-.28,.24-.5,.51-.49l2.01,.04c.28,0,.5,.23,.49,.51,0,.24-.18,.44-.41,.48Z"/><path class="cls-5" d="M22.88,13.05s-.07,0-.1,0l-2.01-.03c-.28,0-.5-.24-.5-.51,0-.28,.25-.5,.51-.49l2.01,.03c.28,0,.5,.23,.49,.51,0,.24-.18,.44-.41,.48Z"/><path class="cls-5" d="M17.87,12.96s-.07,.01-.1,0l-2.01-.04c-.28,0-.5-.23-.49-.51,0-.28,.24-.5,.51-.49l2.01,.04c.28,0,.5,.23,.49,.51,0,.24-.18,.44-.41,.48Z"/><path class="cls-5" d="M32.92,13.23s-.07,0-.11,.01l-2.01-.04c-.28,0-.5-.23-.49-.51,0-.28,.25-.5,.51-.49l2.01,.03c.28,0,.5,.23,.49,.51,0,.24-.18,.44-.4,.48Z"/><path class="cls-5" d="M27.9,13.14s-.07,0-.1,0l-2.01-.04c-.28,0-.5-.23-.49-.51,0-.28,.25-.5,.51-.49l2.01,.03c.28,0,.5,.24,.49,.51,0,.24-.18,.44-.41,.48Z"/><path class="cls-5" d="M19.42,43.71c-.24,.05-.49-.09-.57-.34l-.7-2.18-.76-3.28-6.82-.88c-.09-.01-.18-.05-.25-.1l-1.16-.91c-.13-.1-.2-.27-.19-.44l.21-2.49-.68-1.53c-.05-.13-.06-.27,0-.39,.05-.13,.15-.23,.28-.28l1.53-.62-1.48-.79c-.22-.12-.32-.39-.23-.62l.53-1.39-1.01-.2c-.1-.02-.19-.07-.26-.13l-1.06-1.04c-.18-.18-.2-.45-.05-.65l3.61-5-.88-1.49c-.07-.12-.09-.26-.05-.4l1.28-4.29c.08-.27,.36-.42,.63-.34,.27,.08,.42,.36,.34,.62l-1.22,4.08,.94,1.59c.1,.17,.09,.39-.03,.55l-3.55,4.91,.64,.64,1.44,.29c.15,.03,.27,.12,.34,.25,.07,.13,.09,.28,.03,.42l-.58,1.53,2.04,1.09c.17,.09,.27,.28,.26,.47s-.13,.36-.31,.44l-2.05,.83,.53,1.17c.03,.08,.05,.17,.04,.25l-.2,2.34,.84,.66,7.03,.9c.21,.03,.37,.18,.42,.38l.83,3.59,.69,2.14c.08,.26-.06,.55-.32,.63-.02,0-.04,.01-.06,.02Z"/><path class="cls-5" d="M12.8,22.99c-.2,.04-.42-.05-.53-.25-.14-.24-.05-.55,.19-.68l2.86-1.61-3.15-1.35c-.12-.05-.22-.15-.27-.28-.05-.12-.05-.26,0-.38l.77-1.77c.11-.25,.41-.37,.66-.26,.26,.11,.37,.41,.26,.66l-.57,1.3,3.61,1.56c.17,.08,.29,.24,.3,.43s-.09,.37-.26,.46l-3.74,2.11s-.1,.05-.15,.06Z"/><path class="cls-5" d="M13.72,22.47c-.17,.03-.35-.02-.47-.16-.88-.96-1.02-2.23-.38-3.4,.13-.24,.44-.33,.68-.2,.24,.13,.34,.44,.2,.68-.2,.37-.59,1.34,.24,2.24,.19,.2,.17,.52-.03,.71-.07,.07-.15,.11-.24,.12Z"/><path class="cls-5" d="M28.43,40.24c-.25,.05-.5-.1-.58-.35l-7.53-25.22c-.08-.27,.07-.55,.34-.62,.26-.07,.54,.07,.62,.34l7.54,25.22c.08,.27-.07,.55-.34,.62-.01,0-.03,0-.05,.01Z"/><path class="cls-5" d="M25.17,19.3c-.25,.05-.5-.1-.58-.35l-1.26-4.23c-.08-.27,.07-.55,.34-.62,.26-.08,.55,.07,.63,.34l1.26,4.22c.08,.27-.07,.55-.34,.62-.02,0-.03,.01-.05,.01Z"/><path class="cls-5" d="M28.12,19.16c-.25,.05-.5-.1-.58-.35l-1.21-4.03c-.08-.27,.07-.55,.34-.62,.27-.07,.55,.07,.62,.34l1.21,4.03c.08,.27-.07,.55-.34,.63-.02,0-.03,0-.05,.01Z"/><path class="cls-5" d="M31.13,19.22c-.25,.05-.5-.1-.58-.35l-1.21-4.04c-.08-.27,.07-.55,.34-.63,.27-.08,.55,.07,.62,.34l1.21,4.03c.08,.27-.07,.55-.34,.63-.02,0-.03,0-.05,.01Z"/><path class="cls-5" d="M34.14,19.27c-.25,.05-.5-.1-.58-.35l-1.21-4.03c-.08-.26,.07-.54,.34-.62,.27-.08,.54,.07,.63,.34l1.21,4.03c.08,.27-.07,.55-.34,.62-.02,0-.03,.01-.05,.02Z"/><path class="cls-5" d="M32.03,43.25c-.24,.05-.49,.07-.73,.06-.18,0-.36-.02-.54-.06-1.68-.26-2.94-1.77-2.91-3.51,.03-1.65,1.22-3.08,2.84-3.39,.24-.05,.49-.07,.74-.06,.93,.01,1.81,.4,2.46,1.07,.65,.67,1.01,1.56,.99,2.5-.03,1.65-1.22,3.07-2.84,3.38Zm-1.16-5.91c-1.15,.22-2,1.24-2.02,2.42-.02,1.24,.88,2.32,2.09,2.51,.15,.03,.26,.04,.38,.04,1.36,.02,2.53-1.11,2.55-2.46,.01-.67-.24-1.31-.7-1.79-.47-.48-1.09-.76-1.76-.77-.18,0-.35,.01-.53,.05Z"/><path class="cls-5" d="M32.36,39.82c0,.55-.47,1-1.02,.99-.55,0-.99-.47-.98-1.02,.01-.56,.47-1,1.02-.99,.56,.01,1,.47,.99,1.02Z"/><path class="cls-5" d="M44.05,43.46c-.24,.05-.49,.07-.74,.06-.28,0-.5-.23-.49-.51,0-.28,.25-.5,.51-.49,.67,.01,1.3-.24,1.79-.7,.48-.47,.75-1.09,.76-1.76,.03-1.38-1.08-2.53-2.46-2.55-.28,0-.5-.23-.49-.51,0-.28,.24-.5,.51-.49,1.93,.03,3.48,1.64,3.45,3.58-.02,.94-.4,1.81-1.07,2.46-.49,.48-1.1,.8-1.76,.92Z"/><path class="cls-5" d="M43.53,37.5s-.07,0-.11,0l-12.02-.21c-.28,0-.5-.23-.49-.51,0-.28,.25-.5,.51-.49l12.02,.21c.28,0,.5,.24,.49,.51,0,.24-.18,.44-.4,.48Z"/><path class="cls-5" d="M43.42,43.52s-.07,0-.1,0l-12.02-.21c-.28,0-.5-.23-.49-.51,0-.28,.24-.5,.51-.49l12.02,.21c.28,0,.5,.23,.49,.51,0,.24-.18,.44-.4,.48Z"/><path class="cls-5" d="M30.38,37.2c-.24,.05-.49,.07-.73,.06-1.94-.03-3.48-1.64-3.45-3.57,.03-1.89,1.66-3.48,3.57-3.45,.94,.02,1.81,.4,2.47,1.07,.65,.67,1,1.57,.98,2.5-.03,1.65-1.22,3.07-2.84,3.39Zm-1.15-5.91c-1.16,.22-2.01,1.24-2.03,2.42-.02,1.38,1.08,2.53,2.46,2.55,1.36,.03,2.53-1.11,2.55-2.46,.01-.67-.24-1.31-.7-1.79-.47-.48-1.09-.75-1.76-.76-.18,0-.35,.01-.52,.05Z"/><path class="cls-5" d="M30.71,33.77c-.01,.55-.47,.99-1.02,.98-.56-.01-1-.47-.99-1.02,0-.55,.47-.99,1.02-.98,.55,0,1,.46,.99,1.02Z"/><path class="cls-5" d="M42.41,37.41c-.24,.05-.49,.07-.74,.06-.28,0-.5-.23-.49-.51,0-.28,.24-.5,.51-.49,.67,.01,1.31-.24,1.79-.7,.48-.46,.75-1.09,.76-1.76,.01-.67-.24-1.31-.7-1.79s-1.09-.75-1.76-.77c-.28,0-.5-.23-.49-.51,0-.28,.25-.5,.51-.49,.94,.02,1.82,.39,2.47,1.07,.65,.67,1,1.56,.98,2.5-.02,.94-.39,1.82-1.07,2.47-.49,.48-1.1,.79-1.76,.92Z"/><path class="cls-5" d="M41.88,31.45s-.07,0-.1,0l-12.02-.21c-.28,0-.5-.24-.49-.51,0-.28,.25-.49,.51-.49l12.02,.21c.28,0,.5,.23,.49,.51,0,.24-.18,.44-.4,.48Z"/><path class="cls-5" d="M41.78,37.47s-.07,0-.11,0l-12.02-.21c-.28,0-.5-.23-.49-.51,0-.28,.24-.5,.51-.49l12.02,.21c.28,0,.5,.23,.49,.51,0,.24-.18,.44-.4,.48Z"/><path class="cls-5" d="M28.56,31.15c-.24,.05-.49,.07-.74,.06-.94-.02-1.81-.4-2.46-1.07-.65-.67-1-1.56-.98-2.5,.03-1.89,1.66-3.48,3.57-3.45,.94,.02,1.81,.4,2.47,1.07,.65,.67,1,1.56,.99,2.5-.03,1.65-1.22,3.07-2.84,3.39Zm-1.16-5.91c-1.16,.22-2.01,1.24-2.03,2.42-.01,.67,.24,1.3,.7,1.78,.47,.48,1.09,.76,1.76,.77,1.37,.02,2.53-1.11,2.55-2.46,.01-.67-.24-1.3-.7-1.79s-1.09-.75-1.76-.76c-.18,0-.35,.01-.52,.04Z"/><path class="cls-5" d="M28.89,27.72c0,.56-.47,1-1.02,.99-.55,0-.99-.47-.98-1.02,0-.55,.47-.99,1.02-.98,.55,0,.99,.47,.98,1.02Z"/><path class="cls-5" d="M40.59,31.36c-.24,.05-.49,.07-.74,.06-.28,0-.5-.23-.49-.51,0-.28,.24-.5,.51-.49,.67,.01,1.3-.24,1.78-.7,.48-.47,.75-1.09,.77-1.76,.01-.67-.24-1.31-.7-1.79-.47-.48-1.09-.75-1.76-.77-.28,0-.5-.23-.49-.51,0-.28,.24-.5,.51-.49,.94,.01,1.81,.4,2.47,1.07,.65,.67,1,1.56,.98,2.5-.02,.94-.4,1.81-1.07,2.47-.5,.48-1.1,.79-1.76,.92Z"/><path class="cls-5" d="M40.06,25.4s-.07,0-.11,0l-12.02-.21c-.28,0-.5-.24-.49-.51,0-.28,.25-.5,.51-.49l12.02,.21c.28,0,.5,.23,.49,.51,0,.24-.18,.44-.4,.48Z"/><path class="cls-5" d="M39.95,31.41s-.07,0-.11,0l-12.02-.21c-.28,0-.5-.24-.49-.51,0-.28,.25-.5,.51-.49l12.02,.21c.28,0,.5,.23,.49,.51,0,.24-.18,.44-.41,.48Z"/><path class="cls-5" d="M26.75,25.09c-.24,.05-.49,.07-.74,.07-1.93-.03-3.48-1.64-3.45-3.57,.03-1.65,1.22-3.07,2.84-3.39,.24-.05,.49-.07,.73-.06,1.94,.03,3.48,1.64,3.45,3.57-.03,1.65-1.22,3.07-2.84,3.38Zm-1.16-5.91c-1.16,.22-2.01,1.24-2.03,2.42-.02,1.38,1.08,2.53,2.46,2.55,1.36,.03,2.53-1.11,2.55-2.46,.02-1.38-1.08-2.53-2.47-2.55-.17,0-.35,.01-.52,.05Z"/><path class="cls-5" d="M27.08,21.66c-.01,.55-.47,1-1.02,.98-.55,0-.99-.47-.98-1.02,0-.55,.47-1,1.02-.99,.56,0,.99,.47,.98,1.02Z"/><path class="cls-5" d="M38.77,25.3c-.24,.05-.48,.07-.73,.06-.28,0-.5-.23-.49-.51,0-.28,.24-.5,.51-.49,1.39,.02,2.53-1.08,2.55-2.47,.02-1.38-1.08-2.53-2.46-2.55-.28,0-.5-.24-.49-.51,0-.28,.24-.5,.51-.49,1.94,.03,3.48,1.64,3.45,3.57-.03,1.69-1.25,3.08-2.84,3.39Z"/><path class="cls-5" d="M38.25,19.34s-.07,0-.11,0l-12.03-.21c-.28,0-.49-.23-.49-.51,0-.28,.25-.49,.51-.49l12.02,.21c.28,0,.5,.24,.49,.51,0,.24-.18,.44-.4,.48Z"/><path class="cls-5" d="M38.15,25.36s-.07,0-.11,0l-12.02-.21c-.28,0-.5-.24-.49-.51,0-.28,.25-.5,.51-.49l12.02,.21c.28,0,.5,.23,.49,.51,0,.24-.18,.44-.41,.48Z"/><path class="cls-5" d="M6.99,60.95s-.03,0-.05,0c-.21,.02-.41-.09-.5-.29-1.03-2.15-3.07-11.44,5.71-17.64,.09-.07,.21-.12,.33-.12,.28,0,.5,.23,.5,.5,0,.14-.06,.27-.16,.36-.02,.02-.04,.04-.07,.06-6.94,4.89-6.69,11.78-5.88,15.02,2-5.59,6.99-12.24,12.15-16.03,3.22-2.38,6.44-3.61,9.32-3.56,.28,0,.5,.23,.49,.51,0,.28-.24,.5-.51,.49-2.65-.05-5.66,1.12-8.71,3.37-6.22,4.57-10.95,12.15-12.24,16.96-.05,.19-.2,.33-.39,.36Z"/><path class="cls-5" d="M2.56,66.89c-.24,.05-.49-.09-.57-.34l-.14-.41c-1.44-4.29-5.28-15.69,10.35-23.16,.02-.01,.03-.02,.05-.03h0c1.87-.88,3.95-1.69,6.21-2.4,.24-.08,.55,.06,.63,.33,.08,.26-.06,.55-.33,.63-2.19,.69-4.22,1.47-6.03,2.32-.02,.01-.04,.02-.06,.03C-2.2,50.96,1.44,61.77,2.8,65.83l.14,.41c.09,.26-.06,.55-.32,.63-.02,0-.04,.01-.06,.02Z"/><path class="cls-5" d="M11.9,67.05c-.11,.02-.23,0-.33-.05-.24-.13-.34-.43-.21-.68,.26-.48,.65-1.27,1.15-2.27l.3-.59c.32-.64,.68-1.35,1.08-2.1,.54-1.04,1.17-2.2,1.87-3.45,.49-.87,1.02-1.75,1.57-2.65,0-.02,.02-.04,.03-.05,.64-1.04,1.33-2.1,2.13-3.24,.6-.85,1.22-1.67,1.84-2.45,.98-1.21,1.82-2.15,2.65-2.95,.74-.73,1.53-1.41,2.36-2.02,1.51-1.1,3-1.82,4.43-2.13,.07-.02,.19-.04,.31-.07,.28-.06,.6,.1,.66,.36,.07,.27-.04,.53-.31,.6-.07,.02-.16,.03-.26,.03,0,0-.07,.02-.14,.04-1.33,.29-2.7,.95-4.1,1.97-.78,.58-1.54,1.23-2.25,1.93-.8,.78-1.62,1.68-2.57,2.86-.61,.76-1.21,1.57-1.8,2.4-.77,1.11-1.45,2.14-2.07,3.15,0,.02-.01,.04-.03,.05-.55,.9-1.08,1.79-1.57,2.66-.7,1.24-1.32,2.39-1.86,3.42-.39,.75-.75,1.46-1.07,2.1l-.3,.59c-.5,1.02-.9,1.81-1.16,2.3-.07,.14-.2,.23-.35,.26Z"/><path class="cls-5" d="M45.17,43.02s-.06,.01-.1,0c0,0-.06,0-.07,0-.28-.02-.49-.25-.47-.53,.01-.28,.25-.49,.53-.48,.27,.01,.5,.24,.5,.52,0,.24-.17,.44-.39,.48Z"/><path class="cls-5" d="M11.98,63.04s-.08,.01-.12,0c-.28-.02-.49-.25-.48-.53l.19-3.73-2.43,1.15c-.25,.12-.55,0-.66-.24-.12-.25-.01-.55,.24-.67l3.18-1.5c.16-.07,.35-.06,.5,.04,.15,.1,.23,.27,.22,.44l-.23,4.56c-.01,.23-.19,.42-.41,.47Z"/><path class="cls-5" d="M14.52,58.27s-.08,.01-.12,0c-.28-.01-.49-.25-.48-.52l.16-3.4-2.68,1.37c-.25,.13-.55,.03-.68-.22-.13-.25-.03-.55,.22-.68l3.45-1.77c.16-.08,.35-.07,.5,.02,.15,.1,.24,.26,.23,.44l-.2,4.27c-.01,.24-.18,.42-.41,.47Z"/><path class="cls-5" d="M17.72,53.15s-.07,0-.11,0c-.28,0-.5-.23-.49-.51l.05-2.64-2.92,1.01c-.26,.09-.55-.05-.63-.31-.09-.26,.05-.55,.31-.64l3.59-1.24c.15-.06,.33-.03,.46,.07,.13,.1,.21,.25,.21,.42l-.06,3.36c0,.24-.18,.44-.41,.48Z"/><path class="cls-5" d="M20.33,48.62c-.09,.02-.18,.01-.27-.02-.26-.1-.39-.38-.3-.64l.66-1.8-2.24,.66c-.26,.08-.54-.07-.63-.34-.08-.27,.08-.54,.34-.62l3.19-.95c.19-.06,.38,0,.51,.13,.13,.14,.17,.34,.11,.52l-1,2.74c-.06,.17-.21,.29-.37,.32Z"/><path class="cls-5" d="M23.94,45.24c-.13,.03-.27,0-.39-.09-.22-.16-.27-.48-.11-.7l.9-1.25-1.54,.27c-.27,.05-.53-.14-.58-.41-.05-.27,.13-.53,.41-.58l2.77-.48c.2-.04,.4,.05,.51,.23,.11,.18,.1,.4-.02,.56l-1.63,2.25c-.08,.11-.19,.18-.31,.2Z"/><path class="cls-5" d="M2.45,56.95c-.09,.02-.18,.01-.27-.02-.26-.1-.39-.39-.3-.65l1.09-2.91c.07-.2,.26-.33,.47-.33,.21,0,.4,.14,.47,.34l.81,2.33c.09,.26-.05,.55-.31,.64-.26,.09-.55-.05-.64-.31l-.36-1.02-.6,1.6c-.06,.17-.21,.28-.38,.31Z"/><path class="cls-5" d="M3.15,63.04s-.08,.01-.11,0c-.28-.01-.49-.24-.48-.52l.15-4.09c0-.2,.13-.38,.32-.45,.18-.07,.39-.03,.53,.1l1.91,1.86c.2,.19,.2,.51,.01,.71-.19,.2-.51,.2-.71,.01l-1.1-1.07-.11,2.97c-.01,.24-.18,.43-.41,.47Z"/><path class="cls-5" d="M4.6,52.12c-.11,.02-.23,0-.34-.05-.24-.13-.33-.44-.2-.68l.63-1.14c.13-.24,.44-.33,.68-.2,.24,.13,.33,.44,.2,.68l-.63,1.14c-.07,.14-.2,.23-.34,.25Z"/><path class="cls-5" d="M14,48.8c-.16,.03-.33-.02-.46-.14l-3.28-3.4c-.19-.2-.19-.52,.01-.71,.2-.19,.52-.19,.71,.02l3.28,3.4c.19,.2,.19,.52-.01,.71-.07,.07-.16,.11-.25,.13Z"/><path class="cls-5" d="M15.94,46.72c-.16,.03-.33-.02-.46-.14l-2.92-3.02c-.19-.2-.19-.52,.01-.71,.2-.19,.52-.19,.71,.01l2.91,3.02c.19,.2,.19,.52-.01,.71-.07,.07-.16,.12-.25,.13Z"/><path class="cls-5" d="M18.03,44.8c-.16,.03-.33-.02-.45-.14l-2.2-2.28c-.19-.2-.19-.52,.01-.71,.2-.19,.52-.19,.71,.01l2.2,2.28c.19,.2,.19,.52-.01,.71-.07,.07-.16,.11-.26,.13Z"/><path class="cls-5" d="M12.2,51.02c-.16,.03-.33-.02-.46-.14l-3.39-3.51c-.19-.2-.19-.52,.01-.71,.2-.19,.52-.19,.71,.01l3.39,3.51c.19,.2,.19,.52-.01,.71-.07,.07-.16,.11-.25,.13Z"/><path class="cls-5" d="M10.56,53.4c-.16,.03-.34-.02-.46-.14l-3.22-3.34c-.19-.2-.18-.52,.01-.71,.2-.19,.52-.19,.71,.01l3.22,3.34c.19,.2,.19,.52-.01,.71-.07,.07-.16,.12-.25,.13Z"/><path class="cls-5" d="M9.06,55.93c-.16,.03-.34-.02-.46-.14l-2.7-2.8c-.19-.2-.19-.52,.01-.71,.2-.19,.52-.19,.71,.01l2.7,2.8c.19,.2,.19,.52-.01,.71-.07,.07-.16,.11-.25,.13Z"/><path class="cls-5" d="M7.77,58.68c-.16,.03-.34-.02-.46-.14l-1.64-1.69c-.19-.2-.19-.52,.02-.71,.2-.19,.52-.19,.71,.01l1.63,1.7c.19,.2,.19,.52-.01,.71-.07,.07-.16,.11-.25,.13Z"/><path class="cls-5" d="M20.98,59.87c-.41,.08-.83,.12-1.26,.11-.55,0-1.08-.09-1.56-.24-.82-.23-1.62-.64-2.28-1.21-.21-.18-.24-.5-.06-.71,.18-.21,.5-.24,.71-.06,.55,.47,1.21,.82,1.91,1.01,.41,.12,.84,.19,1.3,.2,.49,0,.98-.05,1.44-.18,2.17-.6,3.7-2.58,3.74-4.82,0-.19,0-.36-.02-.54-.04-.28,.17-.52,.44-.56,.27-.03,.53,.16,.56,.44,.03,.23,.04,.45,.03,.69-.05,2.69-1.88,5.06-4.47,5.77-.16,.05-.31,.08-.47,.11Z"/><path class="cls-5" d="M20.37,56.91c-.19,.04-.39,.05-.6,.05-.92-.02-1.79-.44-2.38-1.17-.1-.11-.13-.27-.1-.41,.05-.27,.32-.46,.58-.4,.15,.03,.27,.12,.34,.23,.41,.47,.98,.74,1.57,.75,.18,0,.35-.02,.52-.06,.94-.22,1.59-1.04,1.61-1.99,0-.11,0-.21-.02-.32-.04-.28,.14-.53,.43-.57,.27-.04,.53,.16,.56,.43,.02,.16,.03,.31,.03,.47-.03,1.41-1,2.62-2.37,2.94-.06,.02-.12,.03-.18,.04Z"/><path class="cls-5" d="M16.89,65.39c-.42,.08-.84,.12-1.27,.11-.61-.01-1.21-.11-1.8-.31-.41-.13-.77-.29-1.11-.49-.24-.14-.32-.45-.18-.69,.14-.24,.45-.32,.69-.18,.28,.16,.57,.29,.91,.4,.49,.16,1,.25,1.5,.26,.42,0,.83-.04,1.25-.13,2.28-.53,3.9-2.53,3.94-4.88,0-.08,0-.13,0-.17-.03-.28,.18-.53,.45-.55,.28-.03,.52,.18,.55,.45,0,.09,0,.17,0,.25-.05,2.85-1.99,5.25-4.72,5.88-.07,.02-.15,.03-.22,.05Z"/><path class="cls-5" d="M16.32,62.44c-.21,.04-.43,.06-.65,.06-.57,0-1.13-.18-1.61-.48-.23-.15-.3-.46-.15-.69,.15-.23,.46-.3,.69-.16,.32,.2,.71,.32,1.09,.33,.23,0,.47-.03,.68-.1,.84-.28,1.43-1.06,1.44-1.95,0-.03,0-.08,0-.12-.03-.27,.16-.53,.44-.56,.27-.03,.53,.16,.56,.44,.01,.08,.01,.18,.01,.26-.03,1.32-.88,2.48-2.14,2.89-.12,.04-.23,.07-.36,.09Z"/><path class="cls-5" d="M24.76,54.05c-.4,.08-.82,.11-1.26,.11-.4,0-.81-.05-1.22-.14-1.02-.23-1.96-.71-2.73-1.39-.2-.18-.22-.5-.04-.71,.18-.21,.5-.23,.71-.04,.64,.57,1.43,.97,2.28,1.16,.33,.07,.68,.11,1.01,.12,.61,0,1.18-.08,1.71-.27,1.96-.64,3.31-2.39,3.45-4.44,.02-.28,.26-.48,.54-.47,.28,.02,.48,.26,.46,.53-.17,2.47-1.79,4.56-4.13,5.33-.25,.09-.52,.16-.79,.21Z"/><path class="cls-5" d="M24.21,51.09c-.22,.04-.43,.06-.65,.06-.85-.01-1.64-.36-2.21-.99-.19-.21-.18-.52,.03-.71s.52-.17,.71,.03c.39,.42,.92,.65,1.5,.66,.2,0,.4-.02,.61-.08,.87-.25,1.48-1.03,1.51-1.94,0-.28,.24-.49,.52-.49,.27,0,.49,.24,.48,.52-.04,1.35-.94,2.5-2.24,2.87-.08,.02-.17,.04-.25,.06Z"/><path class="cls-5" d="M29.55,37.97s-.06,.01-.1,0h-.01c-.28,0-.5-.22-.5-.5,0-.28,.24-.51,.5-.5,.28,0,.51,.23,.5,.5,0,.24-.17,.44-.4,.49Z"/><path class="cls-5" d="M29.45,48.94c-.06,.01-.12,.02-.19,.03-.35,.06-.72,.09-1.1,.08-.75-.01-1.48-.16-2.16-.44-.76-.3-1.45-.75-2.04-1.34-.2-.19-.2-.51,0-.71,.2-.2,.51-.2,.71,0,.49,.48,1.06,.86,1.71,1.11,.57,.24,1.18,.36,1.81,.37,.31,0,.62-.02,.91-.06,2.47-.37,4.23-2.48,4.27-4.94,0-.05,0-.09,0-.12-.03-.28,.16-.53,.43-.56,.28-.03,.53,.16,.56,.43,.01,.09,.01,.19,0,.28-.05,2.88-2.11,5.32-4.93,5.87Z"/><path class="cls-5" d="M28.87,45.98c-.07,.01-.13,.02-.2,.03-.14,.02-.29,.03-.44,.03-.7-.01-1.39-.27-1.92-.72-.21-.18-.24-.5-.06-.71,.18-.21,.5-.24,.71-.06,.36,.31,.81,.47,1.29,.48,.1,0,.2,0,.29-.02,1.04-.13,1.81-1,1.83-2.03,0,0,0-.11,0-.13,0-.02,0-.06,0-.1,0-.28,.24-.5,.5-.5,.28,0,.5,.23,.5,.51,0,.04,0,.08,0,.13,0,0,0,.1,0,.1-.03,1.46-1.09,2.7-2.5,2.98Z"/></g></g></g></g></g></svg>