<?xml version="1.0" encoding="UTF-8"?><svg id="Livello_2" xmlns="http://www.w3.org/2000/svg" xmlns:xlink="http://www.w3.org/1999/xlink" viewBox="0 0 51.46 59.64"><defs><style>.cls-1{fill:none;}.cls-2{clip-path:url(#clippath);}.cls-3{fill:#f1c256;}.cls-4{fill:#c42c27;}.cls-5{fill:#1e1c1c;}.cls-6{fill:#4a6c76;}</style><clipPath id="clippath"><rect class="cls-1" width="51.46" height="59.64"/></clipPath></defs><g id="Livello_2-2"><g class="cls-2"><g><g><path class="cls-4" d="M8.97,78.76c.45-.25,.97-.41,1.54-.41,.56,0,1.09,.15,1.54,.41,.45-.26,.98-.41,1.54-.41,.56,0,1.09,.15,1.54,.41,.45-.25,.97-.41,1.54-.41,.56,0,1.08,.15,1.54,.41,.45-.26,.97-.41,1.54-.41,9.57-1.76,17.66-21.11,19.47-24.6l1.28-1.54-1.28-1.54,5.12-6.15c-16.44,0-22.11,30.29-36.91,33.82l1.55,.41Zm26.93-27.12c.61,0,1.12,.5,1.11,1.11,0,.62-.5,1.11-1.11,1.11-.62,0-1.11-.5-1.12-1.11,0-.61,.5-1.11,1.11-1.11Zm-3.11,4.41c1.08,0,1.96,.88,1.96,1.96,0,1.08-.88,1.96-1.96,1.96-1.08,0-1.96-.88-1.96-1.96,0-1.08,.88-1.96,1.96-1.96Zm-4.27,6.49c1.08,0,1.96,.88,1.96,1.96,0,1.08-.88,1.96-1.96,1.96-1.08,0-1.96-.88-1.96-1.96,0-1.08,.88-1.96,1.96-1.96Zm-4.18,6.31c1.08,0,1.96,.88,1.96,1.96,0,1.08-.88,1.96-1.96,1.96-1.08,0-1.96-.88-1.96-1.96,0-1.08,.88-1.96,1.96-1.96Zm-4.67,5.07c.62,0,1.11,.5,1.11,1.11,0,.62-.5,1.11-1.11,1.11-.61,0-1.11-.5-1.11-1.11,0-.61,.5-1.11,1.11-1.11Z"/><path class="cls-4" d="M42.79,44.12c-.45,.26-.97,.41-1.54,.41-.56,0-1.09-.15-1.54-.41-.45,.25-.97,.41-1.54,.41-.57,0-1.09-.15-1.54-.41-.45,.26-.97,.41-1.54,.41-.56,0-1.09-.16-1.54-.41-.45,.25-.97,.41-1.54,.41-9.57,1.76-17.66,21.11-19.47,24.6l-1.28,1.54,1.28,1.54-5.13,6.15c16.44,0,22.1-30.28,36.9-33.82l-1.54-.41Zm-26.94,27.12c-.62,0-1.11-.5-1.11-1.11,0-.61,.5-1.11,1.11-1.11,.61,0,1.11,.5,1.11,1.11,0,.61-.5,1.11-1.11,1.11Zm3.11-4.4c-1.08,0-1.95-.88-1.96-1.96,0-1.09,.88-1.96,1.96-1.96,1.08,0,1.96,.88,1.96,1.96,0,1.08-.88,1.96-1.96,1.96Zm4.27-6.5c-1.08,0-1.96-.88-1.96-1.96,0-1.08,.88-1.96,1.96-1.96,1.08,0,1.96,.88,1.96,1.96,0,1.08-.88,1.96-1.96,1.96Zm4.18-6.32c-1.08,0-1.95-.88-1.96-1.96,0-1.08,.88-1.96,1.96-1.96,1.08,0,1.96,.87,1.96,1.96,0,1.08-.88,1.96-1.96,1.96Zm4.67-5.07c-.61,0-1.11-.5-1.11-1.11,0-.61,.49-1.11,1.11-1.12,.61,0,1.11,.5,1.11,1.11,0,.61-.49,1.12-1.11,1.12Z"/></g><g><g><path class="cls-3" d="M33.05,11.73l.43-2.15c-.13,.07-.28,.1-.43,.1-.56,0-1.02-.46-1.02-1.02,0-.56,.46-1.02,1.03-1.02,.3,0,.56,.12,.76,.33l1.29-6.48-5.12,5.13-4.1-2.05-4.1,2.05-4.1-2.05-4.1,2.05L8.45,1.48l1.29,6.48c.2-.21,.46-.33,.76-.33,.57,0,1.02,.46,1.03,1.02,0,.57-.46,1.03-1.03,1.03-.15,0-.3-.03-.43-.1l.43,2.15c-.56,0-1.08,.22-1.44,.6-.38,.37-.61,.88-.61,1.45,0,1.12,.92,2.05,2.05,2.05h22.55c1.13,0,2.05-.92,2.05-2.05,0-1.13-.92-2.05-2.05-2.05Zm-15.37-2.05c-.57,0-1.03-.46-1.02-1.03,0-.56,.46-1.03,1.02-1.02,.57,0,1.03,.46,1.03,1.02,0,.57-.46,1.03-1.02,1.03Zm8.2,0c-.57,0-1.03-.46-1.03-1.02,0-.57,.46-1.02,1.03-1.02,.57,0,1.03,.46,1.02,1.03,0,.57-.46,1.02-1.03,1.02Z"/><path class="cls-4" d="M31.47,5.11l-1.5,1.5-4.1-2.05-4.1,2.05-4.1-2.05-4.1,2.05-1.49-1.5c1.37-1.81,5.19-3.11,9.7-3.12,4.5,0,8.32,1.3,9.7,3.12Z"/><path class="cls-6" d="M28.95,41.46c-9.22,0-19.47,13.33-21.52,21.52-1.03-2.05-3.58-13.84,.48-19.5h9.86s9.19-8.25,9.19-8.25l1.99,6.23Z"/><path class="cls-3" d="M32.02,44.53c-9.57,1.76-17.66,21.11-19.47,24.6l-1.28,1.54,1.28,1.54-5.13,6.15-5.13-6.15,1.28-1.53-1.28-1.54c-1.92-3.84-3.96-20.28,5.62-25.65-4.06,5.67-1.51,17.45-.48,19.5,2.05-8.2,12.3-21.52,21.52-21.52,0,1.7,1.37,3.07,3.07,3.08Z"/></g><g><path class="cls-5" d="M9.96,11.27c.18-.04,.35-.06,.54-.06h22.55c1.41,0,2.56,1.15,2.56,2.56,0,1.38-1.18,2.56-2.56,2.56H10.5c-.68,0-1.32-.27-1.81-.75-.48-.49-.75-1.13-.75-1.81,0-.69,.27-1.34,.76-1.81,.34-.35,.78-.59,1.27-.69Zm23.4,4.01c.71-.15,1.22-.78,1.22-1.51,0-.85-.69-1.54-1.54-1.54H10.5c-.41,0-.8,.16-1.08,.45-.3,.29-.46,.67-.46,1.09,0,.41,.16,.79,.45,1.09,.29,.29,.68,.45,1.09,.45h22.55c.11,0,.21,0,.32-.03Z"/><path class="cls-5" d="M10.87,15.37c.08-.02,.16-.01,.24,0,.27,.08,.43,.36,.36,.63l-1.17,4.19,.98,1.61c.11,.17,.1,.39-.02,.56l-3.54,5.08,.67,.64,1.48,.27c.15,.03,.28,.12,.35,.25,.08,.13,.09,.29,.04,.43l-.62,1.72,2.23,1.27c.17,.1,.27,.28,.26,.48-.01,.2-.14,.37-.32,.44l-2.55,1.03-.78,8.99h9.11s9.05-8.12,9.05-8.12c.21-.19,.53-.18,.73,.04,.19,.21,.17,.54-.04,.72l-9.2,8.25c-.09,.08-.22,.13-.34,.13H7.91c-.14,0-.28-.06-.38-.16-.1-.1-.15-.25-.13-.39l.85-9.86c.02-.19,.14-.36,.32-.43l1.87-.76-1.68-.96c-.22-.12-.32-.39-.23-.62l.56-1.55-1.03-.19c-.1-.02-.19-.06-.26-.13l-1.1-1.05c-.18-.17-.21-.46-.07-.66l3.6-5.17-.92-1.51c-.07-.12-.09-.27-.06-.4l1.23-4.41c.05-.19,.21-.32,.39-.36Z"/><path class="cls-5" d="M9.67,28.35c.07-.02,.15-.02,.22,0l5.14,1.22c.12,.03,.22,.09,.29,.18l2.54,3.32c.17,.22,.13,.54-.09,.72-.22,.17-.55,.13-.72-.09l-2.43-3.17-4.96-1.18c-.28-.07-.45-.34-.38-.62,.05-.2,.21-.34,.39-.38Z"/><path class="cls-5" d="M12.92,17.85c.1-.02,.2-.01,.3,.03,.26,.11,.38,.41,.28,.67l-.56,1.34,3.71,1.52c.18,.07,.3,.24,.32,.44,.02,.2-.08,.38-.25,.48l-3.78,2.22c-.25,.15-.56,.06-.7-.18-.14-.24-.06-.56,.18-.7l2.89-1.7-3.23-1.33c-.13-.05-.23-.15-.28-.28-.05-.13-.05-.27,0-.4l.76-1.82c.07-.16,.21-.27,.37-.31Z"/><path class="cls-5" d="M13.13,20.19c.11-.02,.23-.01,.34,.04,.25,.13,.35,.44,.22,.69-.2,.38-.57,1.38,.29,2.29,.19,.2,.18,.53-.02,.72-.2,.19-.53,.19-.72-.02-.91-.96-1.08-2.26-.45-3.46,.07-.14,.2-.23,.35-.26Z"/><path class="cls-5" d="M12.92,17.85c.1-.02,.2-.01,.3,.03,.26,.11,.38,.41,.28,.67l-.56,1.34,3.71,1.52c.18,.07,.3,.24,.32,.44,.02,.2-.08,.38-.25,.48l-3.78,2.22c-.25,.15-.56,.06-.7-.18-.14-.24-.06-.56,.18-.7l2.89-1.7-3.23-1.33c-.13-.05-.23-.15-.28-.28-.05-.13-.05-.27,0-.4l.76-1.82c.07-.16,.21-.27,.37-.31Z"/><path class="cls-5" d="M13.13,20.19c.11-.02,.23-.01,.34,.04,.25,.13,.35,.44,.22,.69-.2,.38-.57,1.38,.29,2.29,.19,.2,.18,.53-.02,.72-.2,.19-.53,.19-.72-.02-.91-.96-1.08-2.26-.45-3.46,.07-.14,.2-.23,.35-.26Z"/><path class="cls-5" d="M28.84,40.95s.07-.01,.11,0c.28,0,.51,.23,.51,.51,0,.71,.29,1.39,.81,1.86,.47,.46,1.09,.7,1.75,.7,.45,0,.88-.12,1.28-.35,.24-.14,.56-.05,.7,.2,.14,.24,.05,.56-.19,.7-.55,.31-1.17,.48-1.79,.48-.93,0-1.8-.35-2.46-.99-.72-.65-1.13-1.6-1.13-2.6,0-.25,.17-.45,.4-.5Z"/><path class="cls-5" d="M31.92,40.95s.07-.01,.11-.01c.28,0,.51,.23,.51,.51,0,.71,.3,1.39,.81,1.86,.15,.14,.29,.25,.48,.37,.38,.22,.83,.34,1.27,.34,.44,0,.89-.12,1.28-.34,.25-.14,.56-.05,.7,.19,.14,.25,.05,.56-.19,.7-.55,.31-1.17,.48-1.79,.47-.62,0-1.24-.16-1.79-.48-.27-.16-.48-.32-.67-.51-.71-.64-1.13-1.59-1.13-2.6,0-.25,.18-.45,.41-.5Z"/><path class="cls-5" d="M34.99,40.95s.07-.01,.11,0c.28,0,.51,.23,.51,.51,0,.71,.29,1.39,.81,1.86,.14,.14,.29,.25,.48,.37,.38,.22,.82,.34,1.27,.34,.45,0,.88-.12,1.28-.34,.24-.14,.56-.05,.7,.2,.14,.24,.05,.56-.19,.7-.55,.31-1.17,.48-1.79,.48-.62,0-1.24-.16-1.79-.48-.28-.16-.49-.33-.67-.52-.71-.64-1.13-1.6-1.12-2.59,0-.25,.17-.46,.4-.5Z"/><path class="cls-5" d="M38.07,40.95s.07,0,.11-.01c.28,0,.51,.23,.51,.51,0,.71,.3,1.39,.81,1.86,.15,.14,.29,.25,.48,.37,.38,.22,.83,.34,1.27,.33,.44,0,.89-.12,1.28-.34,.25-.14,.56-.05,.7,.19,.14,.24,.05,.56-.19,.7-.55,.31-1.17,.48-1.79,.48-.62,0-1.24-.17-1.79-.48-.28-.17-.49-.33-.67-.52-.71-.64-1.12-1.6-1.13-2.6,0-.25,.17-.45,.41-.5Z"/><path class="cls-5" d="M43.57,37.95c.24-.05,.5-.08,.75-.08,1.98,0,3.59,1.61,3.59,3.59,0,1-.42,1.95-1.14,2.61-.12,.12-.27,.25-.42,.35-.59,.41-1.3,.63-2.03,.63-.44,0-.87-.08-1.27-.24-.16-.06-.34-.14-.52-.24-.26-.16-.49-.33-.67-.51-.71-.65-1.13-1.6-1.12-2.6,0-1.68,1.19-3.16,2.84-3.51Zm1.28,6.02c.33-.07,.64-.2,.92-.4,.1-.07,.2-.15,.29-.24,.53-.48,.82-1.16,.82-1.87,0-1.41-1.15-2.57-2.56-2.56-1.39,0-2.56,1.18-2.56,2.56,0,.71,.29,1.38,.81,1.86,.14,.14,.3,.26,.48,.37,.11,.06,.23,.12,.35,.16,.31,.12,.61,.18,.92,.18,.18,0,.36-.02,.53-.06Z"/><path class="cls-5" d="M20.69,15.33c.26-.05,.51,.1,.59,.35l8.15,25.62c.09,.27-.06,.56-.33,.64-.27,.08-.56-.06-.64-.33L20.31,15.99c-.09-.27,.06-.56,.33-.64,.02,0,.03-.01,.05-.01Z"/><path class="cls-5" d="M23.77,15.33c.25-.05,.51,.09,.6,.34l8.14,25.62c.08,.27-.06,.56-.33,.65-.27,.08-.56-.07-.64-.33L23.39,15.99c-.08-.27,.06-.56,.33-.65h.05Z"/><path class="cls-5" d="M26.85,15.33c.25-.05,.51,.1,.6,.35l8.14,25.63c.08,.27-.06,.56-.33,.64-.27,.08-.56-.06-.64-.33L26.46,15.99c-.08-.27,.06-.56,.33-.64,.02,0,.03-.01,.05-.02Z"/><path class="cls-5" d="M29.92,15.33c.25-.05,.51,.09,.59,.34l8.15,25.63c.08,.27-.06,.56-.33,.64-.28,.08-.56-.06-.65-.33L29.54,15.99c-.08-.27,.06-.56,.33-.65h.05Z"/><path class="cls-5" d="M33,15.33c.25-.05,.51,.1,.59,.35l8.15,25.62c.09,.27-.07,.56-.34,.64-.27,.09-.56-.06-.64-.33l-8.15-25.62c-.08-.27,.06-.56,.34-.65,.01,0,.03-.01,.05-.01Z"/><path class="cls-5" d="M45.35,41.45c0,.57-.46,1.03-1.03,1.03-.57,0-1.03-.46-1.02-1.03,0-.57,.46-1.02,1.02-1.03,.57,0,1.03,.46,1.03,1.02Z"/><path class="cls-5" d="M22.34,20.51c.08-.02,.16-.02,.24,0,.27,.08,.43,.36,.36,.63l-2.04,7.19c-.04,.12-.11,.23-.22,.29l-4.69,2.92c-.24,.15-.56,.08-.71-.16-.15-.24-.08-.56,.16-.71l4.52-2.82,1.99-7c.05-.19,.21-.32,.39-.36Z"/><path class="cls-5" d="M10.69,37.79c.05-.01,.1-.01,.15,0,.28,.02,.49,.27,.47,.55l-.45,5.19c-.02,.28-.27,.49-.55,.47s-.49-.27-.47-.56l.45-5.19c.02-.23,.19-.41,.4-.46Z"/><path class="cls-5" d="M13.14,37.78s.1-.01,.15,0c.28,.02,.49,.27,.47,.56l-.45,5.2c-.02,.28-.27,.49-.56,.47-.28-.03-.49-.27-.47-.55l.45-5.2c.02-.23,.19-.41,.41-.46Z"/><path class="cls-5" d="M15.58,37.77s.1-.01,.15,0c.28,.02,.49,.27,.47,.56l-.45,5.2c-.02,.28-.27,.49-.55,.47-.28-.02-.49-.27-.47-.55l.45-5.21c.02-.23,.19-.41,.4-.46Z"/><path class="cls-5" d="M18.03,37.76s.1-.01,.15,0c.28,.02,.49,.27,.47,.56l-.45,5.21c-.02,.28-.27,.49-.55,.47-.28-.02-.49-.27-.47-.55l.45-5.21c.02-.23,.19-.41,.4-.46Z"/><path class="cls-5" d="M8.34,.98c.17-.04,.35,.01,.47,.14l4.86,4.86,3.77-1.88c.14-.07,.31-.07,.45,0l3.87,1.93,3.87-1.93c.15-.07,.31-.07,.46,0l3.77,1.88,4.86-4.86c.16-.16,.41-.2,.6-.09,.2,.11,.3,.33,.26,.55l-2.05,10.25c-.06,.28-.33,.46-.6,.4-.28-.05-.46-.33-.4-.6l1.72-8.59-3.93,3.93c-.15,.16-.4,.2-.59,.1l-3.87-1.93-3.87,1.93c-.15,.07-.32,.07-.46,0l-3.87-1.93-3.87,1.93c-.2,.1-.44,.06-.59-.09l-3.93-3.93,1.72,8.59c.05,.28-.12,.54-.4,.6h0c-.28,.06-.55-.12-.6-.4L7.95,1.58c-.05-.22,.06-.44,.26-.55,.04-.02,.09-.04,.13-.05Z"/><path class="cls-5" d="M17.32,1.93c1.37-.29,2.89-.45,4.46-.45,4.54,0,8.61,1.33,10.11,3.32,.17,.23,.12,.54-.1,.71-.22,.17-.55,.13-.72-.1-1.3-1.71-5.12-2.91-9.29-2.91-4.17,0-7.99,1.2-9.29,2.91-.17,.23-.49,.27-.72,.1-.23-.17-.27-.49-.1-.72,.98-1.3,3.06-2.32,5.65-2.87Z"/><path class="cls-5" d="M17.36,7.15c.1-.02,.21-.03,.32-.03,.41,0,.8,.16,1.09,.45,.29,.29,.45,.67,.45,1.09,0,.83-.71,1.53-1.54,1.54-.41,0-.8-.16-1.09-.45-.29-.29-.45-.68-.45-1.08,0-.72,.51-1.36,1.22-1.51Zm.43,2.01c.24-.05,.41-.26,.41-.5,0-.14-.05-.27-.15-.36-.09-.1-.22-.15-.36-.15-.27,0-.51,.24-.51,.51,0,.13,.05,.27,.15,.36,.1,.1,.23,.15,.36,.15,.04,0,.07,0,.11-.01Z"/><path class="cls-5" d="M10.17,7.15c.11-.02,.22-.03,.33-.03,.85,0,1.54,.69,1.54,1.54,0,.85-.69,1.54-1.54,1.54-.25,0-.47-.05-.67-.16-.25-.13-.34-.44-.21-.69,.13-.25,.45-.35,.69-.21,.06,.03,.12,.04,.19,.04,.28,0,.51-.23,.51-.51,0-.28-.23-.51-.51-.51-.19,0-.31,.1-.39,.17-.19,.2-.52,.21-.72,.01-.2-.19-.21-.52-.02-.72,.22-.23,.5-.39,.8-.45Z"/><path class="cls-5" d="M32.73,7.15c.1-.02,.21-.03,.32-.03,.43,0,.83,.18,1.13,.49,.2,.2,.19,.53-.02,.72-.21,.19-.53,.19-.73-.02-.07-.08-.2-.17-.39-.17-.14,0-.26,.05-.36,.15-.1,.09-.15,.22-.15,.36,0,.14,.05,.27,.15,.36,.09,.1,.23,.15,.36,.15,.1,0,.15-.02,.18-.04,.25-.14,.56-.04,.7,.21,.13,.25,.04,.56-.2,.69-.2,.11-.43,.16-.68,.16-.41,0-.79-.16-1.09-.45-.29-.29-.45-.68-.45-1.09,0-.74,.52-1.36,1.22-1.5Z"/><path class="cls-5" d="M25.55,7.15c.11-.02,.21-.03,.32-.03,.41,0,.8,.16,1.09,.45,.29,.29,.45,.68,.45,1.09,0,.83-.71,1.53-1.54,1.54-.41,0-.8-.16-1.09-.45-.29-.29-.45-.68-.45-1.09,0-.72,.51-1.35,1.22-1.5Zm.43,2.01c.23-.05,.4-.26,.4-.5,0-.14-.05-.26-.15-.36-.1-.09-.23-.15-.36-.15-.28,0-.51,.24-.51,.51,0,.14,.05,.26,.15,.36,.1,.1,.23,.15,.36,.15,.03,0,.07,0,.11,0Z"/><path class="cls-5" d="M10.39,13.28s.07-.01,.11-.01h2.05c.28,0,.51,.23,.51,.51,0,.28-.24,.51-.51,.51h-2.05c-.28,0-.51-.23-.51-.51,0-.25,.17-.45,.41-.5Z"/><path class="cls-5" d="M30.89,13.28s.07-.01,.11-.01h2.05c.28,0,.51,.23,.51,.51,0,.28-.24,.51-.51,.51h-2.05c-.28,0-.51-.23-.51-.51,0-.25,.17-.45,.4-.5Z"/><path class="cls-5" d="M20.64,13.28s.07-.01,.11-.01h2.05c.28,0,.51,.23,.51,.51,0,.28-.25,.51-.52,.51h-2.05c-.28,0-.51-.23-.51-.52,0-.25,.17-.45,.41-.5Z"/><path class="cls-5" d="M15.52,13.28s.07,0,.11-.01h2.05c.28,0,.51,.23,.51,.51,0,.29-.24,.51-.51,.51h-2.05c-.28,0-.51-.23-.51-.51,0-.25,.17-.45,.41-.5Z"/><path class="cls-5" d="M25.77,13.28s.07-.01,.11,0h2.05c.28,0,.51,.23,.51,.51,0,.28-.24,.51-.51,.51h-2.05c-.28,0-.51-.23-.51-.52,0-.24,.17-.45,.41-.5Z"/><path class="cls-5" d="M7.8,42.97c.14-.03,.28,0,.4,.08,.23,.17,.28,.48,.12,.72-3.34,4.66-2.04,13.75-.94,17.56,2.9-8.57,12.68-20.39,21.57-20.39,.28,0,.51,.23,.51,.51,0,.28-.24,.51-.51,.51-8.69,0-18.94,12.79-21.03,21.14-.05,.21-.23,.36-.44,.38-.21,.02-.42-.09-.52-.28-1.12-2.25-3.68-14.16,.53-20.03,.08-.11,.19-.18,.31-.21Z"/><path class="cls-5" d="M7.6,43.28c.17-.04,.34,.01,.47,.14l6.66,6.66c.2,.2,.2,.52,0,.73-.2,.2-.52,.2-.73,0l-6.66-6.66c-.2-.21-.2-.53,0-.73,.07-.07,.16-.12,.26-.14Z"/><path class="cls-5" d="M11.39,42.97c.16-.03,.34,.01,.47,.14l4.82,4.82c.2,.2,.2,.52,0,.72-.2,.2-.52,.2-.72,0l-4.82-4.82c-.2-.2-.2-.52,0-.72,.07-.07,.16-.12,.25-.14Z"/><path class="cls-5" d="M15.49,42.97c.16-.03,.34,.01,.47,.14l2.82,2.82c.2,.2,.2,.52,0,.73-.2,.2-.52,.2-.73,0l-2.82-2.82c-.2-.2-.2-.53,0-.73,.07-.07,.16-.12,.26-.14Z"/><path class="cls-5" d="M18.68,42.06c.16-.03,.34,0,.47,.14l1.94,1.94c.2,.2,.2,.52,0,.73-.2,.2-.53,.2-.73,0l-1.94-1.94c-.2-.2-.2-.52,0-.73,.07-.07,.16-.12,.26-.14Z"/><path class="cls-5" d="M20.84,40.12c.16-.03,.34,.01,.47,.14l2.34,2.34c.2,.2,.2,.52,0,.72-.2,.2-.53,.2-.73,0l-2.34-2.34c-.2-.2-.2-.52,0-.72,.07-.07,.16-.12,.26-.14Z"/><path class="cls-5" d="M23,38.19c.17-.04,.34,.01,.47,.14l3.14,3.13c.2,.2,.2,.52,0,.73-.2,.2-.53,.2-.73,0l-3.14-3.13c-.2-.2-.2-.53,0-.72,.07-.08,.16-.12,.25-.14Z"/><path class="cls-5" d="M25.16,36.24c.16-.03,.33,.01,.46,.13l3.21,3.22c.2,.2,.2,.52,0,.72-.2,.2-.52,.2-.73,0l-3.2-3.19c-.2-.2-.21-.53,0-.73,.07-.08,.16-.12,.26-.14Z"/><path class="cls-5" d="M6.33,46.11c.16-.03,.34,.01,.47,.14l6.14,6.14c.2,.2,.2,.53,0,.72-.2,.2-.53,.2-.73,0l-6.14-6.14c-.2-.21-.2-.53,0-.73,.07-.07,.16-.12,.26-.14Z"/><path class="cls-5" d="M5.68,49.56c.16-.03,.34,0,.47,.14l5.14,5.14c.2,.2,.2,.52,0,.72-.2,.2-.52,.2-.72,0l-5.15-5.14c-.2-.2-.2-.52,0-.73,.07-.07,.16-.12,.26-.14Z"/><path class="cls-5" d="M5.62,53.6c.16-.03,.34,.01,.47,.14l3.72,3.72c.2,.2,.2,.52,0,.73-.2,.2-.52,.2-.72,0l-3.72-3.72c-.2-.2-.2-.52,0-.72,.07-.07,.16-.12,.26-.14Z"/><path class="cls-5" d="M6.17,58.26c.16-.03,.34,0,.47,.14l1.9,1.9c.2,.2,.2,.52,0,.72-.2,.2-.52,.2-.73,0l-1.9-1.89c-.2-.2-.2-.52,0-.73,.07-.07,.16-.12,.26-.14Z"/><path class="cls-5" d="M7.8,42.97c.21-.05,.44,.05,.55,.25,.14,.25,.05,.56-.2,.7-9.47,5.31-7.1,21.58-5.41,24.98,.12,.25,.02,.56-.23,.69-.26,.13-.56,.03-.69-.23-1.78-3.57-4.22-20.7,5.82-26.33,.05-.02,.1-.04,.15-.05Z"/><path class="cls-5" d="M31.7,44.07c.08-.02,.15-.03,.23-.05,.28-.05,.55,.14,.6,.41,.05,.27-.13,.53-.4,.59h-.01c-8.19,1.53-15.48,16.77-18.22,22.51-.37,.79-.68,1.42-.89,1.83-.13,.25-.44,.35-.69,.22-.25-.13-.35-.44-.22-.69,.21-.4,.5-1.02,.87-1.79,2.78-5.82,10.12-21.2,18.73-23.03Z"/><path class="cls-5" d="M3.22,56.33s.04,0,.06,0c.18-.02,.35,.06,.46,.2l1.28,1.73c.17,.23,.12,.55-.11,.72-.22,.17-.55,.12-.71-.11l-.78-1.06-.65,1.3c-.13,.25-.44,.35-.69,.23-.25-.13-.36-.44-.23-.69l1.02-2.05c.07-.14,.2-.24,.35-.27Z"/><path class="cls-5" d="M3.31,52.57s.06,0,.09,0c.16,0,.31,.06,.41,.18l1,1.18c.18,.22,.16,.54-.06,.72-.22,.18-.54,.16-.72-.06l-.57-.68-.61,.84c-.17,.23-.49,.28-.72,.11-.23-.16-.28-.49-.11-.72l1-1.37c.07-.1,.18-.17,.31-.2Z"/><path class="cls-5" d="M15.09,55.25c.12-.03,.26,0,.37,.07,.16,.1,.25,.27,.24,.45l-.13,4.36c0,.28-.24,.51-.53,.5-.28,0-.51-.24-.5-.53l.1-3.48-2.71,1.45c-.25,.14-.56,.04-.69-.21-.13-.24-.04-.56,.21-.69l3.49-1.87s.09-.04,.14-.05Z"/><path class="cls-5" d="M18.14,50.89c.14-.03,.28,0,.4,.08,.14,.1,.22,.25,.22,.42v3.43c0,.28-.24,.51-.51,.51-.28,0-.51-.23-.51-.51v-2.69s-2.96,1.08-2.96,1.08c-.26,.09-.56-.04-.66-.31-.1-.26,.04-.56,.31-.66l3.64-1.34s.05-.01,.07-.02Z"/><path class="cls-5" d="M3.66,49.63s.06-.01,.1-.01c.18,0,.36,.09,.45,.25l.41,.67c.14,.24,.07,.56-.18,.7-.22,.13-.48,.08-.64-.09-.15,.22-.44,.3-.67,.17-.25-.14-.34-.45-.21-.7l.4-.74c.07-.13,.2-.22,.34-.25Z"/><path class="cls-5" d="M21.7,46.84c.17-.04,.35,.02,.47,.14,.14,.14,.18,.34,.12,.53l-.97,2.81c-.09,.27-.39,.41-.65,.32-.27-.09-.41-.38-.32-.65l.64-1.85-2.27,.72c-.27,.08-.56-.06-.64-.33-.09-.27,.06-.56,.33-.64l3.25-1.03s.03,0,.05-.01Z"/><path class="cls-5" d="M23.16,44.35h0s2.82-.54,2.82-.54c.2-.04,.41,.05,.53,.22,.11,.17,.11,.4-.01,.57l-1.62,2.33c-.17,.23-.48,.29-.72,.12-.23-.16-.29-.48-.13-.71l.9-1.29-1.58,.3c-.28,.05-.55-.13-.6-.41-.05-.27,.12-.54,.4-.6Z"/><path class="cls-5" d="M22.72,55.97c.17-.04,.34-.05,.51-.05,1.36,0,2.47,1.11,2.47,2.47,0,1.33-1.14,2.47-2.47,2.47-1.36,0-2.47-1.11-2.47-2.47,0-1.16,.82-2.17,1.96-2.42Zm.82,3.83c.66-.14,1.14-.73,1.14-1.41,0-.8-.65-1.44-1.44-1.45-.79,0-1.44,.67-1.44,1.45,0,.8,.65,1.44,1.44,1.45,.1,0,.2-.01,.3-.03Z"/><path class="cls-5" d="M26.9,49.65c.17-.04,.34-.05,.52-.05,.66,0,1.28,.26,1.74,.72,.47,.46,.72,1.09,.73,1.74,0,1.33-1.14,2.47-2.47,2.47-1.36,0-2.47-1.11-2.46-2.47,0-1.16,.82-2.18,1.95-2.42Zm.82,3.83c.66-.14,1.14-.73,1.14-1.41,0-.39-.15-.75-.43-1.02-.27-.27-.63-.42-1.02-.42-.79,0-1.44,.66-1.44,1.44,0,.8,.65,1.45,1.44,1.45,.1,0,.21-.01,.31-.03Z"/><path class="cls-5" d="M31.75,46.25c.11-.02,.22-.03,.34-.03,.43,0,.84,.17,1.15,.48,.31,.31,.47,.71,.48,1.15,0,.87-.74,1.62-1.62,1.62-.44,0-.84-.17-1.15-.48-.31-.31-.48-.72-.48-1.15,0-.76,.54-1.43,1.29-1.59Zm.46,2.18c.28-.06,.47-.3,.47-.59,0-.16-.06-.31-.18-.42-.11-.12-.26-.18-.42-.18-.31,0-.6,.28-.6,.6,0,.33,.27,.6,.6,.6,.04,0,.08,0,.12-.02Z"/></g></g><g><g><path class="cls-3" d="M19.74,78.36c9.57-1.76,17.66-21.11,19.47-24.6l1.28-1.54-1.28-1.54,5.12-6.15,5.14,6.15-1.28,1.54,1.28,1.54c1.92,3.84,3.96,20.29-5.62,25.66,4.06-5.67,1.5-17.46,.48-19.5-2.05,8.2-12.3,21.52-21.52,21.52,0-1.7-1.38-3.07-3.07-3.07Z"/><path class="cls-4" d="M42.29,53.76c0-1.13,.92-2.05,2.05-2.05,1.13,0,2.05,.92,2.05,2.05,0,1.13-.92,2.05-2.05,2.05-1.13,0-2.05-.92-2.05-2.05Z"/></g><g><path class="cls-5" d="M44.23,59.4s.03,0,.05,0c.21-.02,.42,.09,.51,.28,1.13,2.25,3.69,14.15-.52,20.03-.17,.23-.49,.29-.72,.12-.23-.16-.28-.48-.12-.71,3.34-4.67,2.03-13.76,.94-17.56-2.9,8.57-12.67,20.39-21.57,20.39-.28,0-.51-.23-.51-.51,0-.29,.24-.51,.51-.51,8.7,0,18.94-12.79,21.03-21.14,.05-.19,.2-.34,.39-.38Z"/><path class="cls-5" d="M44.23,47.1s.07-.01,.11-.01c.15,0,.3,.07,.39,.18l5.14,6.15c.16,.19,.16,.46,0,.66l-5.13,6.15c-.1,.12-.24,.19-.39,.19-.15,0-.3-.07-.39-.19l-4.19-5.02s-.03-.04-.05-.07l-.89-1.06c-.16-.19-.16-.47,0-.66l3.71-4.46s.03-.04,.04-.05l1.37-1.64c.07-.09,.18-.15,.29-.17Zm4.57,6.65l-4.47-5.35-.95,1.14s-.02,.04-.03,.05l-3.47,4.16,.66,.79s.03,.04,.05,.07l3.75,4.49,4.47-5.35Z"/><path class="cls-5" d="M44.23,44.03s.07-.01,.1-.01c.16,0,.3,.07,.4,.19l5.13,6.15c.16,.19,.16,.47,0,.66l-1.28,1.53c-.18,.22-.5,.25-.72,.07s-.25-.51-.07-.73l1.01-1.2-4.47-5.35-4.46,5.35,1.01,1.21c.18,.22,.15,.54-.07,.72-.21,.18-.54,.15-.72-.07l-1.28-1.54c-.16-.19-.16-.47,0-.66l5.12-6.15c.07-.09,.18-.15,.29-.17Z"/><path class="cls-5" d="M49.36,53.25c.22-.05,.46,.06,.56,.27,1.78,3.57,4.23,20.69-5.82,26.33-.25,.13-.56,.05-.7-.2-.13-.25-.05-.56,.2-.7,9.47-5.31,7.1-21.59,5.4-24.98-.12-.25-.02-.56,.23-.69,.04-.02,.08-.03,.12-.04Z"/><path class="cls-5" d="M39.1,53.26c.11-.02,.23-.01,.34,.04,.25,.13,.35,.44,.22,.69-.21,.4-.5,1.02-.88,1.8-2.8,5.87-10.24,21.44-18.96,23.07-.28,.05-.55-.13-.6-.41-.05-.28,.13-.54,.4-.6h.01c8.18-1.49,15.48-16.76,18.22-22.5,.38-.79,.68-1.42,.89-1.83,.07-.14,.2-.23,.35-.26Z"/><path class="cls-5" d="M43.8,51.25c.18-.04,.36-.06,.54-.06,1.41,0,2.56,1.15,2.56,2.56,0,1.38-1.18,2.57-2.56,2.56-.69,0-1.33-.26-1.81-.75-.49-.48-.75-1.13-.75-1.81,0-1.2,.85-2.26,2.03-2.51Zm.86,4.01c.7-.15,1.22-.78,1.22-1.5,0-.85-.69-1.54-1.54-1.54-.83,0-1.54,.71-1.54,1.54,0,.41,.16,.8,.45,1.09,.29,.29,.68,.45,1.09,.45,.11,0,.21-.01,.32-.03Z"/><path class="cls-5" d="M39.1,57.35s.08-.01,.12-.01c.28,.01,.5,.25,.5,.53l-.12,3.81,2.46-1.21c.26-.12,.56-.02,.69,.23,.12,.26,.02,.56-.23,.69l-3.22,1.59c-.16,.07-.35,.06-.51-.03-.15-.1-.24-.27-.23-.45l.15-4.66c0-.24,.18-.43,.4-.48Z"/><path class="cls-5" d="M48.81,57.65c.07-.01,.13-.01,.21,0,.28,.05,.46,.33,.4,.6l-.7,3.62c-.03,.16-.14,.3-.3,.37-.16,.07-.33,.05-.48-.04l-1.87-1.18c-.24-.15-.31-.47-.16-.71,.15-.24,.47-.31,.71-.16l1.23,.78,.56-2.88c.04-.21,.2-.36,.4-.4Z"/><path class="cls-5" d="M32.28,55.59c.17-.04,.34-.06,.52-.06,1.36,0,2.47,1.11,2.47,2.47,0,1.33-1.13,2.47-2.47,2.47-1.36,0-2.47-1.11-2.47-2.47,0-1.16,.82-2.17,1.95-2.42Zm.82,3.83c.66-.14,1.14-.74,1.14-1.41,0-.8-.65-1.44-1.45-1.44-.79,0-1.44,.67-1.44,1.44,0,.8,.65,1.45,1.45,1.44,.1,0,.2,0,.3-.03Z"/><path class="cls-5" d="M35.57,51.17c.11-.02,.23-.03,.34-.04,.43,0,.84,.17,1.15,.48,.31,.31,.47,.71,.48,1.15,0,.88-.74,1.62-1.62,1.62-.44,0-.84-.17-1.15-.48-.31-.31-.48-.72-.48-1.15,0-.76,.54-1.43,1.29-1.59Zm.46,2.18c.27-.06,.48-.31,.48-.59,0-.16-.06-.31-.18-.42-.11-.12-.27-.18-.42-.17-.33,0-.6,.27-.6,.6,0,.16,.06,.31,.18,.42,.11,.12,.26,.18,.42,.17,.04,0,.09,0,.13-.01Z"/></g></g></g></g></g></svg>