<?xml version="1.0" encoding="UTF-8"?><svg id="Livello_2" xmlns="http://www.w3.org/2000/svg" viewBox="0 0 34.56 36.59"><defs><style>.cls-1{fill:#191818;}</style></defs><g id="Livello_2-2"><path class="cls-1" d="M34.56,20.61c0-3.55-1.93-6.64-4.79-8.31,0,0,0,0,0,0-.03-.02-.06-.03-.1-.05-.11-.06-.23-.12-.34-.18C19.06,6.73,17.28,0,17.28,0c0,0-1.79,6.75-12.1,12.08-.09,.04-.17,.09-.26,.14-.05,.02-.09,.05-.14,.08,0,0,0,0,0,0C1.93,13.97,0,17.06,0,20.61c0,5.31,4.31,9.62,9.62,9.62,2.04,0,3.93-.64,5.49-1.73l-2.03,5.07-4.31,3.02H25.79l-4.31-3.02-2.03-5.08c1.56,1.09,3.45,1.73,5.49,1.73,5.31,0,9.62-4.31,9.62-9.62Z"/></g></svg>