<?xml version="1.0" encoding="UTF-8"?><svg id="Livello_2" xmlns="http://www.w3.org/2000/svg" viewBox="0 0 49.17 59.64"><defs><style>.cls-1{fill:none;}.cls-2{fill:#c42c27;}</style></defs><g id="Livello_2-2"><g><rect class="cls-1" width="49.17" height="59.64"/><path class="cls-2" d="M24.59,10.57l16.04,19.28-16.04,19.22L8.55,29.84,24.59,10.57m0-4c-1.19,0-2.31,.53-3.07,1.44L5.47,27.29c-1.24,1.48-1.23,3.64,0,5.12l16.04,19.22c.76,.91,1.88,1.44,3.07,1.44h0c1.19,0,2.31-.53,3.07-1.44l16.04-19.22c1.24-1.48,1.24-3.64,0-5.12L27.66,8.01c-.76-.91-1.89-1.44-3.07-1.44h0Z"/></g></g></svg>