<?xml version="1.0" encoding="UTF-8"?><svg id="Livello_2" xmlns="http://www.w3.org/2000/svg" xmlns:xlink="http://www.w3.org/1999/xlink" viewBox="0 0 49.17 59.64"><defs><style>.cls-1{fill:none;}.cls-2{clip-path:url(#clippath);}.cls-3{fill:#f1c256;}.cls-4{fill:#c42c27;}.cls-5{fill:#1e1c1c;}.cls-6{fill:#4a6c76;}</style><clipPath id="clippath"><rect class="cls-1" width="49.17" height="59.64"/></clipPath></defs><g id="Livello_2-2"><g class="cls-2"><g><g><path class="cls-6" d="M8.97,75.76c-.19,0-2.83-.14-3.01-.1,13.38-4.79,21.8-32.36,37.25-31.83l-.43,.48-4.61,5.15-.19,.21,1.2,1.55-5.98,.31,2.46,5.35-6.76,.27,3.06,6.12h0s-.01,.01-.01,.01l-6.67,.03s2.13,5.94,2.25,6.11l-6.27-.76s1.06,5.37,1.16,5.55l-5.38-1.06-.57,3.27c-.43-.27-.94-.43-1.49-.45-.55-.02-1.07,.11-1.52,.35-.43-.27-.94-.43-1.49-.45-.55-.02-1.07,.11-1.52,.35-.43-.27-.94-.43-1.49-.45Z"/><path class="cls-6" d="M40.21,43.73c.19,0,2.81,.14,3,.1-13.38,4.79-21.79,32.37-37.24,31.83l.43-.48,4.61-5.15,.19-.21-1.2-1.55,5.98-.31-2.45-5.36,6.75-.27-3.06-6.12h0s0,0,0,0l6.67-.03s-2.13-5.94-2.25-6.11l6.27,.76s-1.06-5.38-1.16-5.55l5.39,1.06,.56-3.27c.43,.26,.94,.43,1.49,.45,.55,.02,1.07-.11,1.52-.35,.43,.27,.94,.44,1.49,.45,.55,.02,1.07-.11,1.52-.35,.43,.26,.94,.43,1.49,.45Z"/></g><g><g><path class="cls-6" d="M29.96,75.89c5.98-4.24,11.19-11.69,12.72-17.01,.93,2.04,2.72,11.11-5.86,16.93,0,.01-.01,.01-.01,.01-1.8,.81-3.84,1.57-6.18,2.26l-.67-2.19Z"/><path class="cls-4" d="M42.68,58.87l4.53-5.87c1.22,3.91,5.53,15.54-10.39,22.8,8.58-5.82,6.79-14.89,5.86-16.93Z"/><path class="cls-4" d="M17.99,76.08c9.42-1.4,17.99-20.05,19.89-23.4l4.8,6.19c-1.53,5.33-6.74,12.77-12.72,17.01-2.94,2.09-6.09,3.41-9.07,3.3,.06-1.66-1.24-3.05-2.9-3.11Z"/><path class="cls-3" d="M37.88,52.68c-.43,.75-1.19,2.28-2.22,4.21l-2.46-5.35,5.98-.31-1.31,1.46Z"/><path class="cls-3" d="M28.9,57.16l6.76-.27c-1,1.86-2.25,4.1-3.7,6.39l-3.06-6.12Z"/><path class="cls-3" d="M44.71,59.42c.02-.67,.6-1.19,1.27-1.17,.67,.02,1.19,.59,1.17,1.26-.03,.67-.58,1.19-1.26,1.17-.67-.02-1.21-.58-1.18-1.26Z"/><path class="cls-3" d="M36.7,59.85c.03-.9,.8-1.6,1.7-1.57,.9,.03,1.62,.79,1.59,1.69-.03,.91-.8,1.62-1.7,1.59-.9-.03-1.62-.79-1.59-1.7Z"/><polygon class="cls-3" points="39.18 51.22 37.98 49.67 38.17 49.46 43.21 43.83 47.32 50 46.12 51.35 47.21 53.01 42.68 58.87 37.88 52.68 38.07 52.47 39.18 51.22"/><path class="cls-4" d="M40.89,52.79c.04-1.1,.86-1.98,1.85-1.94,.97,.03,1.73,.96,1.69,2.07-.04,1.1-.86,1.98-1.84,1.94-.98-.04-1.74-.96-1.7-2.07Z"/></g><g><path class="cls-5" d="M23.11,79.53c-.77,.14-1.51,.19-2.24,.17-.28,0-.49-.24-.49-.52,0-.28,.25-.49,.52-.49,2.65,.09,5.68-1.02,8.77-3.21,6.29-4.46,11.15-11.95,12.53-16.74,.06-.2,.24-.34,.44-.36,.21-.02,.41,.1,.49,.29,.99,2.17,2.87,11.48-5.99,17.52,0,0-.02,.02-.03,.02-.11,.08-.25,.12-.39,.1-.27-.04-.46-.3-.42-.57,.02-.13,.08-.24,.18-.31,.01-.01,.03-.03,.05-.04,7.02-4.76,6.9-11.66,6.13-14.91-2.1,5.55-7.2,12.12-12.42,15.82-2.44,1.74-4.87,2.83-7.14,3.23Z"/><path class="cls-5" d="M42.77,59.37s-.05,0-.09,0c-.15,0-.3-.07-.4-.19l-4.8-6.19c-.15-.19-.14-.46,.02-.64l2.49-2.79s.04-.04,.07-.06l2.67-2.99c.1-.12,.26-.18,.41-.17,.16,0,.3,.09,.38,.22l4.11,6.17c.12,.18,.11,.42-.02,.59l-4.53,5.87c-.08,.1-.19,.16-.31,.19Zm-4.24-6.66l4.15,5.35,3.92-5.07-3.55-5.33-2.3,2.57s-.04,.04-.07,.06l-2.15,2.41Z"/><path class="cls-5" d="M46.2,51.85c-.15,.03-.3-.01-.42-.12-.21-.18-.23-.5-.04-.71l.94-1.06-3.54-5.31-4.51,5.04,.94,1.22c.17,.22,.13,.54-.09,.7-.21,.17-.53,.13-.7-.09l-1.2-1.55c-.15-.19-.14-.46,.02-.64l.19-.22,5.04-5.63c.1-.12,.25-.18,.41-.16,.16,0,.29,.09,.38,.22l4.11,6.17c.13,.19,.11,.44-.04,.61l-1.2,1.35c-.08,.09-.18,.14-.29,.16Z"/><path class="cls-5" d="M30.71,78.57c-.25,.04-.49-.1-.57-.35-.08-.27,.07-.54,.34-.62,2.2-.65,4.24-1.4,6.07-2.22,.02,0,.03-.02,.05-.03,15-6.83,11.55-17.69,10.25-21.78l-.13-.41c-.08-.26,.07-.54,.33-.63,.26-.08,.55,.06,.63,.33l.13,.4c1.37,4.32,5.01,15.77-10.73,22.97-.03,.02-.06,.04-.09,.05-1.88,.85-3.97,1.61-6.22,2.28-.02,0-.04,.01-.06,.01Z"/><path class="cls-5" d="M18.26,76.54c-.06,.01-.13,.02-.2,.03-.27,.04-.53-.15-.57-.42-.04-.27,.14-.53,.42-.57,1.37-.21,2.79-.81,4.23-1.78,1.61-1.09,3.3-2.67,5-4.7,1.47-1.75,2.94-3.8,4.38-6.09,.01-.02,.03-.04,.04-.06,1.2-1.9,2.39-3.97,3.65-6.31,.51-.95,.95-1.8,1.32-2.5,.39-.74,.69-1.33,.91-1.72,.14-.24,.45-.32,.68-.18,.24,.14,.33,.44,.19,.68-.22,.38-.52,.95-.9,1.68-.37,.71-.81,1.57-1.32,2.52-1.27,2.37-2.48,4.46-3.69,6.39-.02,.03-.04,.07-.07,.1-1.45,2.3-2.93,4.36-4.42,6.13-1.77,2.09-3.52,3.74-5.21,4.88-1.5,1.01-2.99,1.66-4.44,1.91Z"/><path class="cls-5" d="M43,55.33c-.14,.03-.29,.03-.43,.03-1.26-.04-2.24-1.2-2.19-2.59,.05-1.36,1.12-2.47,2.36-2.42,.62,.02,1.18,.31,1.6,.81,.4,.48,.6,1.11,.58,1.77-.04,1.2-.85,2.21-1.92,2.4Zm-.52-3.96c-.61,.11-1.07,.71-1.1,1.44-.03,.83,.52,1.52,1.22,1.55,.68,.02,1.29-.66,1.31-1.46,.02-.41-.11-.8-.36-1.1-.23-.28-.53-.44-.86-.45-.07,0-.15,0-.23,.02Z"/><path class="cls-5" d="M40.46,50.39s-.09,.01-.15,0c-.27-.03-.48-.28-.45-.56,.03-.27,.28-.47,.55-.44h.01c.28,.03,.47,.28,.44,.56-.02,.23-.2,.4-.41,.44Z"/><path class="cls-5" d="M36.05,56.83s-.09,0-.13,0c-.28-.02-.48-.27-.45-.54,.02-.28,.27-.48,.55-.46,.28,.02,.48,.26,.45,.54h0c-.02,.24-.19,.42-.41,.46Z"/><path class="cls-5" d="M38.72,62.02c-.15,.03-.29,.04-.45,.03-1.18-.04-2.11-1.04-2.07-2.22,.04-1.15,1.05-2.1,2.22-2.06,1.18,.04,2.11,1.03,2.07,2.21-.04,1.01-.78,1.86-1.78,2.04Zm-.57-3.23c-.53,.09-.92,.55-.94,1.08-.02,.63,.47,1.16,1.1,1.18,.62,.03,1.16-.48,1.18-1.1,.02-.62-.47-1.15-1.1-1.17-.08,0-.16,0-.24,.02Z"/><path class="cls-5" d="M46.23,61.15c-.12,.02-.24,.03-.36,.03-.95-.03-1.7-.83-1.66-1.77,.03-.93,.85-1.69,1.78-1.66,.46,.02,.88,.21,1.2,.54,.31,.33,.47,.77,.46,1.23-.03,.8-.62,1.49-1.42,1.63Zm-.43-2.39c-.33,.06-.58,.34-.6,.68-.01,.39,.3,.72,.7,.74,.39,.02,.72-.3,.74-.69,0-.19-.06-.37-.19-.51-.13-.14-.31-.22-.5-.23-.05,0-.1,0-.15,.01Z"/><path class="cls-5" d="M32.04,63.78s-.07,0-.1,0c-.22,0-.4-.14-.46-.34l-3.03-6.06c-.08-.15-.07-.33,.02-.48,.09-.15,.24-.24,.41-.25l6.76-.27c.28-.01,.51,.2,.52,.48,.01,.28-.21,.51-.48,.52l-5.98,.24,2.71,5.42c.04,.07,.05,.15,.05,.24,0,.24-.18,.45-.42,.49Z"/><path class="cls-5" d="M35.74,57.38c-.22,.04-.45-.07-.54-.28l-2.46-5.35c-.07-.15-.06-.33,.03-.47,.09-.14,.24-.23,.4-.24l5.98-.31c.28-.01,.51,.2,.53,.48,.02,.28-.19,.52-.47,.52l-5.25,.27,2.15,4.68c.12,.25,0,.55-.25,.67-.04,.02-.08,.03-.12,.04Z"/></g></g><g><g><path class="cls-3" d="M33.31,11.37l.49-2.09c-.13,.07-.27,.09-.42,.09-.55-.02-.99-.49-.97-1.04,.02-.55,.49-.99,1.04-.97,.29,0,.55,.14,.73,.35l1.49-6.29-5.19,4.84-7.95-2.29-8.09,1.73L9.6,.5l1.04,6.38c.2-.19,.46-.31,.75-.29,.55,.02,.99,.49,.97,1.04-.02,.55-.49,.99-1.04,.97-.15,0-.29-.04-.42-.12l.35,2.12c-.55-.02-1.06,.18-1.43,.54-.38,.35-.62,.84-.64,1.4-.04,1.1,.83,2.03,1.94,2.07l22.06,.77c1.1,.04,2.04-.83,2.08-1.94,.04-1.1-.83-2.04-1.94-2.07Zm-14.97-2.53c-.55-.02-.99-.49-.97-1.04,.02-.55,.49-.99,1.04-.97,.55,.02,.99,.49,.97,1.04-.02,.55-.49,.99-1.04,.97Zm8.02,.28c-.55-.02-.99-.49-.97-1.04,.02-.55,.49-.99,1.04-.97,.55,.02,.99,.49,.97,1.04-.02,.55-.49,.99-1.04,.97Z"/><path class="cls-4" d="M31.99,4.83l-1.52,1.42-7.95-2.29-8.09,1.73-1.41-1.52c1.4-1.73,5.19-2.87,9.59-2.72,4.4,.16,8.1,1.56,9.38,3.38Z"/><path class="cls-6" d="M19.21,43.61c-5.98,4.24-11.19,11.68-12.72,17.01-.94-2.04-2.73-11.11,5.86-16.93,0,0,0,0,0,0,1.8-.81,3.84-1.57,6.18-2.26l.67,2.19Z"/><path class="cls-4" d="M6.5,60.62l-4.53,5.86c-1.22-3.91-5.53-15.54,10.39-22.8-8.59,5.82-6.79,14.89-5.86,16.93Z"/><path class="cls-4" d="M31.19,43.41c-9.42,1.4-18,20.05-19.89,23.4l-4.8-6.19c1.53-5.33,6.74-12.77,12.72-17.01,2.94-2.1,6.09-3.41,9.07-3.31-.06,1.67,1.24,3.06,2.9,3.11Z"/><path class="cls-3" d="M20.28,62.34l-6.75,.27c1-1.87,2.25-4.1,3.69-6.39l3.06,6.12Z"/><path class="cls-3" d="M17.23,56.21c1.32-2.09,2.82-4.23,4.42-6.14,.11,.18,2.25,6.11,2.25,6.11l-6.67,.03Z"/><path class="cls-3" d="M26.75,45.28c.11,.18,1.16,5.55,1.16,5.55l-6.27-.76c1.6-1.9,3.32-3.58,5.11-4.79Z"/><path class="cls-3" d="M32.14,46.34l-5.39-1.06c1.44-.97,2.93-1.63,4.43-1.86,.55,.02,1.07-.11,1.52-.35l-.56,3.27Z"/><path class="cls-3" d="M2.45,55.65c.02-.52,.45-.93,.98-.91,.52,.02,.93,.45,.91,.98-.02,.52-.45,.93-.98,.91-.52-.02-.93-.45-.91-.98Z"/><path class="cls-3" d="M4.46,60.08c-.02,.67-.59,1.19-1.26,1.17-.67-.03-1.2-.59-1.17-1.26,.02-.67,.58-1.19,1.26-1.17,.67,.02,1.21,.58,1.18,1.26Z"/><path class="cls-3" d="M12.47,59.64c-.03,.9-.8,1.61-1.7,1.58-.9-.03-1.62-.79-1.58-1.69,.03-.91,.8-1.62,1.7-1.59,.9,.03,1.62,.79,1.59,1.7Z"/><path class="cls-3" d="M15.23,54.49c-.03,.91-.79,1.62-1.7,1.59-.9-.03-1.61-.79-1.57-1.7,.03-.9,.79-1.61,1.69-1.58,.91,.03,1.62,.79,1.59,1.69Z"/><path class="cls-3" d="M18.4,50.14c-.03,.82-.72,1.47-1.56,1.44-.82-.03-1.47-.72-1.44-1.55,.03-.82,.73-1.47,1.55-1.44,.83,.03,1.48,.72,1.45,1.55Z"/><path class="cls-3" d="M22.06,45.99c-.03,.68-.59,1.21-1.26,1.18-.67-.02-1.19-.59-1.17-1.27,.02-.67,.59-1.19,1.26-1.17,.67,.02,1.19,.58,1.17,1.26Z"/><path class="cls-3" d="M25.85,43.35c-.02,.52-.46,.93-.98,.91-.52-.02-.93-.45-.91-.97,.02-.52,.45-.93,.98-.91,.52,.02,.93,.45,.91,.97Z"/></g><g><path class="cls-5" d="M33.68,15.84c-.17,.03-.35,.04-.52,.04l-22.06-.77c-.67-.02-1.29-.31-1.74-.79-.46-.49-.7-1.13-.67-1.8,.03-.68,.31-1.3,.81-1.74,.46-.45,1.12-.7,1.79-.67l22.06,.77c.67,.02,1.29,.31,1.74,.79,.46,.49,.7,1.13,.67,1.8-.04,1.17-.91,2.18-2.07,2.38ZM10.92,11.12c-.28,.05-.54,.18-.75,.38-.3,.28-.47,.65-.49,1.05-.02,.4,.13,.78,.4,1.08,.28,.3,.65,.47,1.04,.48l22.06,.77c.83,.03,1.53-.64,1.56-1.45,.01-.4-.13-.78-.4-1.08-.28-.3-.65-.47-1.05-.48l-22.06-.77c-.11,0-.21,0-.32,.02Z"/><path class="cls-5" d="M33.4,11.86c-.06,.01-.13,.01-.2,0-.27-.06-.44-.33-.37-.6l1.98-8.34-3.98,3.71c-.13,.12-.31,.17-.48,.12l-7.83-2.25-7.97,1.7c-.16,.04-.35-.02-.47-.15l-3.71-3.98,1.39,8.46c.04,.27-.14,.5-.42,.57-.27,.05-.53-.14-.58-.41L9.1,.58c-.04-.22,.07-.43,.27-.53,.2-.1,.44-.05,.59,.11l4.64,4.98,7.81-1.66c.09-.02,.16-.02,.24,0l7.68,2.21,4.98-4.65c.16-.15,.4-.18,.59-.07,.19,.11,.29,.33,.24,.55l-2.35,9.96c-.05,.2-.21,.35-.4,.38Z"/><path class="cls-5" d="M32.08,5.33c-.19,.03-.38-.04-.5-.21-1.21-1.72-4.9-3.02-8.98-3.17-4.08-.14-7.85,.9-9.18,2.53-.18,.22-.49,.25-.71,.07-.21-.18-.25-.49-.07-.71,1.54-1.89,5.56-3.06,10-2.9,4.44,.16,8.37,1.6,9.77,3.59,.16,.23,.1,.54-.12,.7-.06,.05-.13,.07-.2,.09Z"/><path class="cls-5" d="M18.63,9.31c-.1,.02-.21,.03-.31,.02-.83-.03-1.48-.73-1.45-1.56,.03-.81,.73-1.48,1.56-1.45,.83,.03,1.48,.73,1.45,1.56-.03,.71-.55,1.3-1.25,1.43Zm-.34-1.97c-.23,.04-.41,.24-.42,.48-.01,.28,.21,.51,.48,.52,.27,.01,.51-.22,.52-.49,0-.28-.21-.51-.49-.52-.03,0-.07,0-.1,0Z"/><path class="cls-5" d="M11.62,9.07c-.1,.02-.21,.02-.32,.02-.24,0-.46-.07-.65-.18-.24-.14-.32-.44-.18-.68,.14-.24,.45-.32,.69-.18,.05,.03,.11,.04,.18,.05,.13,0,.26-.05,.36-.14,.1-.09,.16-.22,.16-.35,0-.28-.21-.51-.49-.52-.18,0-.31,.08-.38,.15-.2,.19-.52,.19-.71,0-.19-.2-.19-.52,0-.71,.31-.3,.7-.45,1.12-.44,.83,.03,1.48,.73,1.46,1.56-.02,.4-.19,.77-.48,1.05-.22,.2-.48,.33-.76,.38Z"/><path class="cls-5" d="M33.67,9.84c-.1,.02-.2,.02-.31,.02-.83-.03-1.48-.73-1.45-1.56,.03-.83,.72-1.48,1.55-1.45,.42,.02,.81,.2,1.09,.51,.19,.21,.17,.53-.04,.71s-.52,.17-.71-.04c-.07-.08-.19-.17-.37-.18-.27-.02-.51,.21-.52,.48,0,.28,.21,.51,.49,.52,.07,0,.13-.01,.18-.03,.25-.13,.55-.02,.67,.22,.12,.25,.02,.55-.22,.67-.11,.06-.23,.1-.36,.12Z"/><path class="cls-5" d="M26.66,9.6c-.1,.02-.21,.03-.31,.02-.83-.03-1.48-.73-1.45-1.56,.03-.81,.75-1.48,1.56-1.45,.4,.01,.77,.18,1.05,.48,.27,.29,.42,.68,.4,1.08-.02,.7-.55,1.31-1.24,1.43Zm-.34-1.98c-.23,.04-.41,.24-.42,.48,0,.28,.21,.51,.48,.52,.27,.01,.51-.21,.52-.48,0-.13-.04-.26-.13-.36-.09-.1-.22-.16-.35-.16-.03,0-.07,0-.1,0Z"/><path class="cls-5" d="M13.28,13.17s-.07,0-.11,0l-2-.07c-.27,0-.49-.24-.48-.52,0-.28,.25-.49,.52-.49l2,.07c.28,.01,.5,.24,.49,.52,0,.24-.19,.44-.41,.48Z"/><path class="cls-5" d="M23.3,13.52s-.07,.01-.11,.01l-2.01-.07c-.28-.01-.49-.24-.48-.52,0-.28,.26-.49,.52-.48l2.01,.07c.28,0,.49,.24,.48,.52,0,.24-.19,.44-.41,.48Z"/><path class="cls-5" d="M33.33,13.87s-.07,.01-.1,0l-2.01-.07c-.28-.01-.5-.24-.48-.52,0-.28,.25-.49,.52-.48l2,.07c.28,0,.49,.24,.48,.52,0,.24-.19,.44-.41,.48Z"/><path class="cls-5" d="M28.32,13.69s-.07,.01-.11,.01l-2.01-.07c-.28,0-.49-.24-.48-.52,0-.28,.25-.5,.52-.49l2,.07c.28,0,.49,.24,.49,.52,0,.24-.19,.44-.41,.48Z"/><path class="cls-5" d="M18.29,13.34s-.07,0-.1,0l-2.01-.07c-.28,0-.49-.24-.48-.52,.01-.28,.25-.49,.52-.49l2,.07c.28,0,.49,.24,.48,.52,0,.24-.18,.44-.41,.48Z"/><path class="cls-5" d="M19.3,44.1c-.25,.04-.49-.1-.57-.35l-.67-2.19-.71-3.32-6.61-1.29c-.13-.03-.23-.1-.31-.2l-.94-1.3c-.06-.08-.09-.18-.1-.28l-.07-2.3-.55-1.71c-.08-.25,.05-.53,.3-.62l1.42-.54-1.52-.67c-.25-.11-.36-.4-.26-.65l.7-1.67-1.94-1.03c-.13-.07-.22-.19-.25-.33-.03-.14,0-.29,.08-.41l3.32-4.54-.85-1.51c-.07-.12-.08-.27-.04-.4l1.36-4.27c.08-.26,.37-.41,.63-.33,.26,.08,.41,.36,.33,.63l-1.29,4.06,.9,1.6c.1,.17,.09,.38-.03,.54l-3.17,4.34,1.83,.97c.23,.12,.33,.4,.23,.64l-.69,1.65,2.18,.97c.19,.08,.3,.27,.3,.47,0,.2-.13,.38-.32,.46l-2.11,.81,.43,1.32s.02,.09,.02,.14l.06,2.22,.73,1.01,6.75,1.32c.2,.04,.35,.19,.39,.39l.77,3.6,.66,2.15c.08,.27-.07,.54-.33,.63-.02,0-.04,.01-.06,.01Z"/><path class="cls-5" d="M13.05,23.27c-.21,.04-.42-.06-.53-.26-.13-.24-.04-.55,.2-.68l2.88-1.56-3.12-1.41c-.12-.05-.22-.16-.26-.28-.05-.12-.04-.26,.01-.38l.8-1.75c.11-.25,.41-.36,.66-.25,.25,.12,.36,.41,.25,.67l-.59,1.29,3.58,1.62c.17,.08,.29,.25,.29,.44,0,.19-.09,.37-.26,.46l-3.78,2.04s-.1,.04-.15,.05Z"/><path class="cls-5" d="M13.98,22.77c-.16,.03-.34-.03-.46-.16-.86-.97-.98-2.24-.32-3.4,.14-.24,.44-.33,.68-.19,.24,.14,.33,.44,.19,.69-.21,.37-.61,1.33,.2,2.25,.18,.21,.16,.52-.05,.71-.07,.06-.16,.1-.25,.12Z"/><path class="cls-5" d="M31.9,43.87c-.24,.04-.49,.06-.73,.05-1.93-.07-3.45-1.7-3.39-3.63,.01-.28,.25-.49,.52-.48,.28,0,.49,.24,.48,.52-.05,1.38,1.04,2.55,2.42,2.6,.44,.02,.87-.08,1.27-.29,.25-.13,.55-.03,.68,.21,.13,.24,.03,.55-.21,.67-.33,.17-.68,.29-1.04,.36Z"/><path class="cls-5" d="M34.91,43.97c-.24,.04-.49,.06-.73,.05-.61-.02-1.21-.2-1.73-.53-1.06-.67-1.69-1.85-1.65-3.1,.01-.28,.25-.49,.52-.49,.28,0,.49,.24,.48,.52-.03,.89,.42,1.74,1.18,2.21,.38,.24,.8,.36,1.24,.38,.44,.02,.87-.08,1.27-.29,.25-.13,.55-.03,.67,.21,.13,.25,.03,.55-.21,.68-.33,.17-.68,.29-1.04,.36Z"/><path class="cls-5" d="M37.92,44.07c-.24,.04-.49,.06-.73,.05-.61-.02-1.21-.2-1.73-.53-1.06-.67-1.7-1.85-1.65-3.1,.01-.28,.25-.49,.52-.48,.28,.01,.49,.24,.48,.52-.03,.89,.42,1.74,1.18,2.21,.38,.23,.8,.36,1.24,.38s.87-.08,1.27-.29c.24-.13,.55-.03,.68,.21,.13,.25,.03,.55-.21,.68-.33,.17-.68,.29-1.04,.35Z"/><path class="cls-5" d="M40.95,44.17s-.07,.01-.11,.02c-.18,.04-.42,.05-.65,.05-.61-.02-1.21-.21-1.74-.53-1.06-.67-1.69-1.85-1.65-3.1,0-.28,.25-.49,.52-.49,.28,.01,.49,.24,.48,.52-.03,.89,.42,1.74,1.17,2.22,.38,.24,.8,.36,1.24,.38,.16,0,.31,0,.45-.03,.28-.04,.55-.13,.82-.26,.24-.12,.55-.03,.67,.22,.13,.25,.03,.55-.22,.67-.33,.17-.66,.28-1,.34Z"/><path class="cls-5" d="M43.94,44.29c-.24,.04-.49,.06-.74,.05-1.93-.07-3.45-1.7-3.38-3.63,.06-1.64,1.28-3.05,2.9-3.33,.24-.04,.49-.06,.73-.05,.94,.03,1.81,.43,2.45,1.11,.64,.69,.97,1.58,.94,2.52-.06,1.65-1.28,3.05-2.9,3.34Zm-1.05-5.93c-1.16,.2-2.03,1.21-2.07,2.38-.05,1.38,1.04,2.55,2.42,2.59,1.37,.05,2.55-1.07,2.59-2.42,.02-.67-.22-1.31-.67-1.8-.46-.49-1.08-.77-1.74-.8-.18,0-.35,0-.53,.03Z"/><path class="cls-5" d="M28.37,40.79c-.25,.04-.5-.11-.57-.36l-3.68-13.13c-.08-.27,.08-.54,.35-.62,.27-.07,.55,.08,.62,.35l3.68,13.13c.08,.27-.08,.54-.35,.62-.01,0-.03,0-.05,.01Z"/><path class="cls-5" d="M31.38,40.9c-.25,.04-.5-.11-.57-.36l-3.26-11.65c-.07-.26,.08-.54,.35-.62,.26-.07,.54,.08,.62,.35l3.26,11.65c.07,.27-.08,.54-.35,.62-.02,0-.03,0-.05,.01Z"/><path class="cls-5" d="M34.38,41.01c-.25,.04-.5-.11-.57-.36l-3.12-11.16c-.08-.27,.08-.54,.35-.62,.27-.07,.54,.08,.62,.35l3.12,11.16c.07,.27-.08,.54-.35,.62-.02,0-.03,.01-.05,.02Z"/><path class="cls-5" d="M37.39,41.11c-.25,.04-.5-.11-.57-.36l-3.19-11.36c-.07-.27,.08-.54,.35-.62,.28-.07,.54,.08,.62,.35l3.19,11.36c.07,.27-.08,.54-.35,.62-.02,0-.04,0-.05,.01Z"/><path class="cls-5" d="M40.4,41.22c-.25,.04-.5-.11-.57-.36l-7.09-25.34c-.07-.27,.08-.54,.35-.62,.27-.06,.54,.08,.62,.35l7.09,25.34c.07,.27-.08,.54-.35,.62-.02,0-.03,0-.05,.01Z"/><path class="cls-5" d="M44.33,40.86c-.02,.55-.49,.99-1.04,.97-.55-.02-.99-.48-.97-1.04,.02-.55,.48-.99,1.03-.97,.56,.02,.99,.49,.97,1.04Z"/><path class="cls-5" d="M34.68,29.67c-.99,.17-2,.24-3.02,.21-3.88-.14-7.48-1.78-10.13-4.62-2.65-2.84-4.04-6.54-3.9-10.43,0-.28,.26-.49,.52-.48,.28,0,.49,.24,.49,.52-.13,3.61,1.16,7.06,3.63,9.71,2.47,2.65,5.82,4.17,9.43,4.3,1.74,.06,3.43-.21,5.04-.79,.26-.1,.55,.04,.64,.3,.1,.26-.04,.55-.3,.64-.78,.29-1.58,.5-2.4,.65Z"/><path class="cls-5" d="M34.19,26.7c-.8,.14-1.61,.2-2.42,.17-6.36-.22-11.35-5.58-11.13-11.93,0-.28,.26-.49,.52-.48,.28,0,.49,.24,.49,.52-.1,2.81,.9,5.49,2.82,7.55,1.92,2.06,4.52,3.25,7.34,3.34,1.42,.05,2.8-.18,4.13-.68,.26-.1,.55,.03,.65,.29,.1,.26-.03,.55-.29,.65-.68,.26-1.38,.45-2.09,.58Z"/><path class="cls-5" d="M33.64,23.74c-.58,.1-1.17,.14-1.77,.12-2.28-.08-4.39-1.04-5.94-2.71-1.56-1.67-2.36-3.84-2.29-6.11,0-.28,.25-.49,.52-.49,.28,0,.49,.24,.48,.52-.07,2.01,.65,3.93,2.02,5.4,1.37,1.47,3.23,2.32,5.24,2.39,1.09,.04,2.17-.16,3.18-.59,.26-.11,.55,.01,.65,.27,.11,.25-.01,.55-.27,.65-.6,.25-1.21,.43-1.83,.54Z"/><path class="cls-5" d="M33.14,20.78c-.38,.07-.77,.09-1.16,.08-1.47-.05-2.83-.67-3.84-1.75-1.01-1.08-1.53-2.48-1.48-3.95,.01-.28,.25-.49,.52-.49,.28,0,.49,.24,.48,.52-.04,1.2,.39,2.35,1.21,3.24,.82,.88,1.94,1.39,3.14,1.43,.77,.03,1.54-.14,2.22-.49,.25-.13,.55-.03,.68,.22,.13,.25,.03,.55-.22,.67-.49,.25-1.01,.42-1.55,.52Z"/><path class="cls-5" d="M32.6,17.81c-.17,.03-.34,.04-.52,.03-1.38-.05-2.47-1.21-2.42-2.59,0-.28,.25-.49,.52-.49,.28,0,.49,.24,.48,.52-.03,.83,.62,1.53,1.45,1.56,.43,.02,.83-.15,1.13-.46,.19-.2,.51-.21,.71-.01,.2,.19,.21,.51,.01,.71-.37,.38-.85,.64-1.37,.73Z"/><path class="cls-5" d="M6.58,61.12s-.04,0-.05,0c-.21,.02-.41-.1-.49-.29-.99-2.17-2.87-11.48,5.99-17.52t0,0c.11-.09,.25-.13,.39-.12,.28,.03,.47,.28,.44,.56-.02,.13-.08,.25-.18,.33-.01,.01-.03,.03-.05,.04-7.02,4.77-6.9,11.66-6.13,14.91,2.1-5.55,7.2-12.12,12.42-15.82,3.26-2.33,6.51-3.5,9.38-3.4,.28,0,.49,.24,.48,.52,0,.28-.25,.49-.52,.48-2.65-.09-5.68,1.02-8.76,3.22-6.3,4.46-11.15,11.96-12.53,16.74-.05,.19-.21,.32-.39,.36Z"/><path class="cls-5" d="M2.05,66.98c-.24,.04-.49-.1-.56-.35l-.13-.4C-.01,61.91-3.65,50.46,12.09,43.26c.03-.02,.06-.03,.09-.05,1.87-.85,3.97-1.61,6.22-2.28,.25-.07,.54,.07,.62,.34,.08,.26-.07,.54-.34,.62-2.2,.65-4.25,1.4-6.07,2.22-.02,.01-.04,.02-.05,.03C-2.43,50.98,1.01,61.84,2.31,65.93l.13,.41c.08,.26-.06,.54-.33,.63-.02,0-.04,.01-.06,.02Z"/><path class="cls-5" d="M11.38,67.31c-.11,.02-.23,0-.34-.06-.24-.14-.32-.44-.18-.69,.21-.37,.5-.93,.87-1.65,.37-.72,.82-1.59,1.34-2.55,1.26-2.36,2.47-4.45,3.69-6.38,.02-.04,.04-.07,.07-.1,1.46-2.31,2.95-4.37,4.42-6.14,1.77-2.1,3.52-3.74,5.21-4.88,1.57-1.06,3.15-1.71,4.64-1.94,.27-.04,.53,.15,.57,.42,.04,.27-.16,.52-.42,.57-1.36,.21-2.78,.81-4.23,1.78-1.61,1.09-3.3,2.67-5,4.7-1.46,1.74-2.93,3.79-4.38,6.08,0,.02-.02,.03-.03,.05-1.21,1.91-2.4,3.98-3.65,6.32-.52,.96-.97,1.82-1.34,2.54-.38,.73-.68,1.31-.9,1.68-.08,.13-.21,.22-.35,.24Z"/><path class="cls-5" d="M13.8,49.09c-.16,.03-.33-.03-.45-.15l-3.22-3.46c-.19-.2-.18-.52,.03-.71,.2-.19,.52-.18,.71,.03l3.22,3.45c.19,.2,.18,.52-.02,.71-.07,.07-.16,.11-.26,.13Z"/><path class="cls-5" d="M15.77,47.05c-.16,.03-.33-.02-.45-.15l-2.86-3.07c-.19-.2-.18-.52,.02-.71,.2-.19,.52-.18,.71,.02l2.86,3.07c.19,.2,.18,.52-.03,.71-.07,.07-.16,.11-.26,.13Z"/><path class="cls-5" d="M17.9,45.17c-.16,.03-.33-.02-.46-.15l-2.16-2.31c-.19-.2-.18-.52,.03-.71,.2-.19,.52-.18,.71,.03l2.16,2.32c.19,.2,.18,.52-.02,.71-.07,.07-.16,.11-.26,.13Z"/><path class="cls-5" d="M11.96,51.28c-.16,.03-.33-.02-.45-.15l-3.33-3.57c-.19-.2-.18-.52,.03-.71,.2-.19,.52-.18,.71,.03l3.33,3.57c.19,.2,.18,.52-.02,.71-.07,.07-.16,.11-.26,.13Z"/><path class="cls-5" d="M10.28,53.64c-.16,.03-.33-.02-.45-.15l-3.17-3.39c-.19-.2-.18-.52,.02-.71,.2-.19,.52-.18,.71,.03l3.16,3.39c.19,.2,.18,.52-.02,.71-.07,.07-.16,.11-.26,.13Z"/><path class="cls-5" d="M8.73,56.14c-.16,.03-.33-.02-.45-.15l-2.65-2.84c-.19-.2-.18-.52,.02-.71,.2-.19,.52-.18,.71,.03l2.65,2.84c.19,.2,.18,.52-.03,.71-.07,.07-.16,.11-.26,.13Z"/><path class="cls-5" d="M7.39,58.86c-.16,.03-.33-.02-.46-.15l-1.6-1.72c-.19-.2-.18-.52,.03-.71,.2-.19,.52-.18,.71,.02l1.6,1.72c.19,.2,.18,.52-.03,.71-.07,.07-.16,.11-.25,.13Z"/><path class="cls-5" d="M13.96,56.55c-.15,.03-.3,.04-.45,.03-1.18-.04-2.1-1.04-2.06-2.22,.04-1.15,1.06-2.1,2.21-2.06,.57,.02,1.11,.26,1.5,.68,.39,.42,.59,.96,.57,1.53-.04,1.02-.76,1.86-1.77,2.04Zm-.58-3.23c-.52,.09-.92,.54-.93,1.08-.02,.63,.47,1.16,1.09,1.19,.63,.02,1.16-.48,1.18-1.1,.01-.3-.1-.59-.3-.81-.21-.22-.49-.35-.8-.36-.08,0-.16,0-.24,.02Z"/><path class="cls-5" d="M11.2,61.69c-.15,.03-.3,.04-.45,.03-.57-.02-1.1-.26-1.49-.67-.39-.42-.6-.96-.58-1.53,.04-1.16,1.06-2.11,2.22-2.07,1.18,.04,2.11,1.04,2.07,2.22-.03,1-.78,1.85-1.77,2.03Zm-.57-3.23c-.53,.09-.93,.55-.94,1.09-.01,.3,.1,.59,.31,.81,.21,.22,.49,.35,.79,.36,.62,.02,1.16-.48,1.18-1.09,.02-.63-.47-1.16-1.1-1.19-.08,0-.16,0-.24,.02Z"/><path class="cls-5" d="M17.25,52.06c-.14,.02-.28,.03-.42,.03-.53-.02-1.02-.24-1.39-.63-.37-.39-.56-.9-.54-1.43,.04-1.07,.98-1.96,2.07-1.93,.53,.02,1.03,.25,1.4,.64,.37,.39,.55,.9,.53,1.43-.03,.93-.72,1.73-1.65,1.9Zm-.52-2.94c-.46,.08-.8,.48-.82,.94-.01,.26,.08,.52,.27,.71,.18,.2,.42,.31,.69,.32,.54,.02,1.02-.42,1.04-.96,0-.26-.09-.51-.27-.71-.18-.19-.43-.31-.7-.32-.07,0-.14,0-.21,.01Z"/><path class="cls-5" d="M21.15,47.64c-.12,.02-.24,.03-.36,.02-.46-.02-.88-.21-1.2-.54-.31-.34-.47-.78-.46-1.24,.03-.92,.84-1.68,1.78-1.65,.94,.03,1.69,.83,1.65,1.78-.03,.82-.61,1.5-1.41,1.64Zm-.43-2.4c-.33,.06-.57,.34-.58,.68,0,.2,.06,.38,.19,.52,.13,.13,.31,.22,.5,.22,.4,.01,.72-.3,.74-.7,.02-.39-.29-.72-.69-.74-.05,0-.1,0-.15,.01Z"/><path class="cls-5" d="M3.55,61.72c-.12,.02-.24,.03-.36,.03-.46-.02-.89-.21-1.2-.54-.31-.33-.47-.77-.46-1.23,.03-.92,.84-1.69,1.78-1.65,.46,.02,.89,.21,1.2,.55,.31,.33,.48,.77,.46,1.23-.02,.81-.62,1.49-1.42,1.63Zm-.43-2.39c-.33,.06-.57,.34-.58,.68,0,.19,.06,.37,.19,.51,.13,.14,.31,.22,.5,.22,.39,.02,.73-.3,.74-.69,0-.19-.06-.37-.19-.51-.13-.14-.31-.22-.51-.23-.05,0-.1,0-.15,.01Z"/><path class="cls-5" d="M25.16,44.74c-.1,.02-.2,.03-.3,.02-.39-.01-.75-.17-1.01-.46-.26-.28-.4-.65-.39-1.03,.03-.78,.72-1.42,1.5-1.39,.8,.03,1.42,.7,1.39,1.49-.03,.68-.53,1.26-1.19,1.37Zm-.27-1.86c-.28,.05-.42,.22-.43,.42,0,.12,.04,.23,.12,.32,.08,.09,.19,.14,.31,.14h.09c.2-.04,.36-.22,.36-.43,0-.24-.18-.45-.43-.45h-.03Z"/><path class="cls-5" d="M3.65,57.11c-.1,.02-.2,.02-.3,.02-.8-.03-1.42-.7-1.39-1.49,.03-.78,.71-1.42,1.5-1.39,.79,.03,1.42,.7,1.39,1.49-.03,.68-.53,1.26-1.19,1.37Zm-.27-1.86c-.28,.05-.42,.22-.43,.42-.01,.25,.18,.45,.43,.46h.09c.21-.04,.36-.21,.36-.42,0-.24-.18-.45-.43-.45,0,0-.02,0-.03,0Z"/><path class="cls-5" d="M5,52.41c-.01,.44-.38,.79-.83,.77-.44-.02-.79-.39-.77-.83,.02-.44,.39-.79,.83-.77,.44,.01,.79,.38,.77,.83Z"/><path class="cls-5" d="M32.23,46.83c-.06,.01-.12,.01-.19,0l-5.38-1.06c-.27-.06-.45-.32-.39-.59,.05-.27,.31-.45,.59-.39l4.88,.96,.48-2.77c.05-.27,.31-.46,.58-.41,.27,.05,.46,.31,.41,.58l-.56,3.27c-.02,.13-.1,.25-.21,.33-.06,.04-.13,.07-.2,.08Z"/><path class="cls-5" d="M28,51.32s-.1,0-.15,0l-6.27-.76c-.28-.03-.47-.28-.44-.56,.03-.27,.28-.47,.56-.44l5.58,.68c-.38-1.94-.91-4.51-1-4.78-.14-.24-.05-.51,.19-.65,.24-.14,.56-.03,.7,.21,.05,.09,.15,.25,1.22,5.71,.03,.16-.01,.32-.12,.44-.07,.08-.17,.13-.28,.15Z"/><path class="cls-5" d="M23.98,56.67s-.05,0-.08,0l-6.67,.03c-.27-.03-.51-.28-.48-.56,.03-.28,.25-.48,.52-.44l5.9-.03c-.79-2.18-1.86-5.12-1.97-5.38-.15-.23-.08-.52,.15-.67,.23-.15,.55-.07,.71,.16,.04,.06,.15,.22,2.3,6.22,.06,.15,.04,.32-.06,.46-.08,.11-.19,.18-.33,.21Z"/><path class="cls-5" d="M20.36,62.83s-.05,0-.07,0l-6.75,.27c-.28,.01-.51-.21-.52-.48,0-.28,.21-.51,.48-.52l5.98-.24-2.71-5.43c-.04-.07-.05-.15-.06-.23,0-.28,.23-.5,.51-.5,.22,0,.4,.14,.47,.33l3.03,6.07c.07,.15,.07,.33-.02,.48-.07,.13-.21,.21-.35,.24Z"/></g></g></g></g></g></svg>